<mxfile host="app.diagrams.net" modified="2022-03-22T04:47:14.485Z" agent="5.0 (Windows NT 10.0; Win64; x64) AppleWebKit/537.36 (KHTML, like Gecko) Chrome/99.0.4844.74 Safari/537.36" etag="l7nSnuWFOKmIF1mAijvt" version="17.1.3" type="github">
  <diagram id="YhbxEx5RGCXPEsdFYbAi" name="Page-1">
    <mxGraphModel dx="782" dy="514" grid="1" gridSize="10" guides="1" tooltips="1" connect="1" arrows="1" fold="1" page="1" pageScale="1" pageWidth="827" pageHeight="1169" math="0" shadow="0">
      <root>
        <mxCell id="0" />
        <mxCell id="1" parent="0" />
        <mxCell id="3euveo2As2rDuUt7kVab-1" value="&lt;b&gt;&lt;font style=&quot;font-size: 14px&quot;&gt;T(n) = aT(n/b) + f(n)&lt;/font&gt;&lt;/b&gt;" style="rounded=1;whiteSpace=wrap;html=1;" vertex="1" parent="1">
          <mxGeometry x="290" y="190" width="240" height="30" as="geometry" />
        </mxCell>
        <mxCell id="3euveo2As2rDuUt7kVab-21" style="edgeStyle=none;rounded=0;orthogonalLoop=1;jettySize=auto;html=1;exitX=0.5;exitY=1;exitDx=0;exitDy=0;entryX=0.5;entryY=0;entryDx=0;entryDy=0;fontSize=14;endArrow=none;endFill=0;" edge="1" parent="1" source="3euveo2As2rDuUt7kVab-2" target="3euveo2As2rDuUt7kVab-3">
          <mxGeometry relative="1" as="geometry" />
        </mxCell>
        <mxCell id="3euveo2As2rDuUt7kVab-23" style="edgeStyle=none;rounded=0;orthogonalLoop=1;jettySize=auto;html=1;exitX=0.5;exitY=1;exitDx=0;exitDy=0;entryX=0.5;entryY=0;entryDx=0;entryDy=0;fontSize=14;endArrow=none;endFill=0;" edge="1" parent="1" source="3euveo2As2rDuUt7kVab-2" target="3euveo2As2rDuUt7kVab-4">
          <mxGeometry relative="1" as="geometry" />
        </mxCell>
        <mxCell id="3euveo2As2rDuUt7kVab-24" style="edgeStyle=none;rounded=0;orthogonalLoop=1;jettySize=auto;html=1;exitX=0.5;exitY=1;exitDx=0;exitDy=0;entryX=0.5;entryY=0;entryDx=0;entryDy=0;fontSize=14;endArrow=none;endFill=0;" edge="1" parent="1" source="3euveo2As2rDuUt7kVab-2" target="3euveo2As2rDuUt7kVab-5">
          <mxGeometry relative="1" as="geometry" />
        </mxCell>
        <mxCell id="3euveo2As2rDuUt7kVab-2" value="f(n)" style="rounded=1;whiteSpace=wrap;html=1;fontSize=14;" vertex="1" parent="1">
          <mxGeometry x="380" y="280" width="60" height="30" as="geometry" />
        </mxCell>
        <mxCell id="3euveo2As2rDuUt7kVab-25" style="edgeStyle=none;rounded=0;orthogonalLoop=1;jettySize=auto;html=1;exitX=0.5;exitY=1;exitDx=0;exitDy=0;entryX=0.5;entryY=0;entryDx=0;entryDy=0;fontSize=14;endArrow=none;endFill=0;" edge="1" parent="1" source="3euveo2As2rDuUt7kVab-3" target="3euveo2As2rDuUt7kVab-6">
          <mxGeometry relative="1" as="geometry" />
        </mxCell>
        <mxCell id="3euveo2As2rDuUt7kVab-26" style="edgeStyle=none;rounded=0;orthogonalLoop=1;jettySize=auto;html=1;exitX=0.5;exitY=1;exitDx=0;exitDy=0;entryX=0.5;entryY=0;entryDx=0;entryDy=0;fontSize=14;endArrow=none;endFill=0;" edge="1" parent="1" source="3euveo2As2rDuUt7kVab-3" target="3euveo2As2rDuUt7kVab-10">
          <mxGeometry relative="1" as="geometry" />
        </mxCell>
        <mxCell id="3euveo2As2rDuUt7kVab-27" style="edgeStyle=none;rounded=0;orthogonalLoop=1;jettySize=auto;html=1;exitX=0.5;exitY=1;exitDx=0;exitDy=0;entryX=0.5;entryY=0;entryDx=0;entryDy=0;fontSize=14;endArrow=none;endFill=0;" edge="1" parent="1" source="3euveo2As2rDuUt7kVab-3" target="3euveo2As2rDuUt7kVab-11">
          <mxGeometry relative="1" as="geometry" />
        </mxCell>
        <mxCell id="3euveo2As2rDuUt7kVab-3" value="f(n/b)" style="rounded=1;whiteSpace=wrap;html=1;fontSize=14;" vertex="1" parent="1">
          <mxGeometry x="220" y="350" width="60" height="30" as="geometry" />
        </mxCell>
        <mxCell id="3euveo2As2rDuUt7kVab-28" style="edgeStyle=none;rounded=0;orthogonalLoop=1;jettySize=auto;html=1;exitX=0.5;exitY=1;exitDx=0;exitDy=0;entryX=0.5;entryY=0;entryDx=0;entryDy=0;fontSize=14;endArrow=none;endFill=0;" edge="1" parent="1" source="3euveo2As2rDuUt7kVab-4" target="3euveo2As2rDuUt7kVab-12">
          <mxGeometry relative="1" as="geometry" />
        </mxCell>
        <mxCell id="3euveo2As2rDuUt7kVab-29" style="edgeStyle=none;rounded=0;orthogonalLoop=1;jettySize=auto;html=1;exitX=0.5;exitY=1;exitDx=0;exitDy=0;entryX=0.5;entryY=0;entryDx=0;entryDy=0;fontSize=14;endArrow=none;endFill=0;" edge="1" parent="1" source="3euveo2As2rDuUt7kVab-4" target="3euveo2As2rDuUt7kVab-13">
          <mxGeometry relative="1" as="geometry" />
        </mxCell>
        <mxCell id="3euveo2As2rDuUt7kVab-30" style="edgeStyle=none;rounded=0;orthogonalLoop=1;jettySize=auto;html=1;exitX=0.5;exitY=1;exitDx=0;exitDy=0;entryX=0.5;entryY=0;entryDx=0;entryDy=0;fontSize=14;endArrow=none;endFill=0;" edge="1" parent="1" source="3euveo2As2rDuUt7kVab-4" target="3euveo2As2rDuUt7kVab-14">
          <mxGeometry relative="1" as="geometry" />
        </mxCell>
        <mxCell id="3euveo2As2rDuUt7kVab-4" value="f(n/b)" style="rounded=1;whiteSpace=wrap;html=1;fontSize=14;" vertex="1" parent="1">
          <mxGeometry x="380" y="350" width="60" height="30" as="geometry" />
        </mxCell>
        <mxCell id="3euveo2As2rDuUt7kVab-31" style="edgeStyle=none;rounded=0;orthogonalLoop=1;jettySize=auto;html=1;exitX=0.5;exitY=1;exitDx=0;exitDy=0;entryX=0.5;entryY=0;entryDx=0;entryDy=0;fontSize=14;endArrow=none;endFill=0;" edge="1" parent="1" source="3euveo2As2rDuUt7kVab-5" target="3euveo2As2rDuUt7kVab-15">
          <mxGeometry relative="1" as="geometry" />
        </mxCell>
        <mxCell id="3euveo2As2rDuUt7kVab-32" style="edgeStyle=none;rounded=0;orthogonalLoop=1;jettySize=auto;html=1;exitX=0.5;exitY=1;exitDx=0;exitDy=0;entryX=0.5;entryY=0;entryDx=0;entryDy=0;fontSize=14;endArrow=none;endFill=0;" edge="1" parent="1" source="3euveo2As2rDuUt7kVab-5" target="3euveo2As2rDuUt7kVab-16">
          <mxGeometry relative="1" as="geometry" />
        </mxCell>
        <mxCell id="3euveo2As2rDuUt7kVab-33" style="edgeStyle=none;rounded=0;orthogonalLoop=1;jettySize=auto;html=1;exitX=0.5;exitY=1;exitDx=0;exitDy=0;entryX=0.5;entryY=0;entryDx=0;entryDy=0;fontSize=14;endArrow=none;endFill=0;" edge="1" parent="1" source="3euveo2As2rDuUt7kVab-5" target="3euveo2As2rDuUt7kVab-17">
          <mxGeometry relative="1" as="geometry" />
        </mxCell>
        <mxCell id="3euveo2As2rDuUt7kVab-5" value="f(n/b)" style="rounded=1;whiteSpace=wrap;html=1;fontSize=14;" vertex="1" parent="1">
          <mxGeometry x="550" y="350" width="60" height="30" as="geometry" />
        </mxCell>
        <mxCell id="3euveo2As2rDuUt7kVab-6" value="f(n/b^2)" style="rounded=1;whiteSpace=wrap;html=1;fontSize=14;" vertex="1" parent="1">
          <mxGeometry x="170" y="420" width="50" height="30" as="geometry" />
        </mxCell>
        <mxCell id="3euveo2As2rDuUt7kVab-10" value="f(n/b^2)" style="rounded=1;whiteSpace=wrap;html=1;fontSize=14;" vertex="1" parent="1">
          <mxGeometry x="220" y="420" width="50" height="30" as="geometry" />
        </mxCell>
        <mxCell id="3euveo2As2rDuUt7kVab-11" value="f(n/b^2)" style="rounded=1;whiteSpace=wrap;html=1;fontSize=14;" vertex="1" parent="1">
          <mxGeometry x="270" y="420" width="50" height="30" as="geometry" />
        </mxCell>
        <mxCell id="3euveo2As2rDuUt7kVab-12" value="f(n/b^2)" style="rounded=1;whiteSpace=wrap;html=1;fontSize=14;" vertex="1" parent="1">
          <mxGeometry x="339" y="420" width="50" height="30" as="geometry" />
        </mxCell>
        <mxCell id="3euveo2As2rDuUt7kVab-13" value="f(n/b^2)" style="rounded=1;whiteSpace=wrap;html=1;fontSize=14;" vertex="1" parent="1">
          <mxGeometry x="389" y="420" width="50" height="30" as="geometry" />
        </mxCell>
        <mxCell id="3euveo2As2rDuUt7kVab-14" value="f(n/b^2)" style="rounded=1;whiteSpace=wrap;html=1;fontSize=14;" vertex="1" parent="1">
          <mxGeometry x="439" y="420" width="50" height="30" as="geometry" />
        </mxCell>
        <mxCell id="3euveo2As2rDuUt7kVab-15" value="f(n/b^2)" style="rounded=1;whiteSpace=wrap;html=1;fontSize=14;" vertex="1" parent="1">
          <mxGeometry x="505" y="420" width="50" height="30" as="geometry" />
        </mxCell>
        <mxCell id="3euveo2As2rDuUt7kVab-16" value="f(n/b^2)" style="rounded=1;whiteSpace=wrap;html=1;fontSize=14;" vertex="1" parent="1">
          <mxGeometry x="555" y="420" width="50" height="30" as="geometry" />
        </mxCell>
        <mxCell id="3euveo2As2rDuUt7kVab-17" value="f(n/b^2)" style="rounded=1;whiteSpace=wrap;html=1;fontSize=14;" vertex="1" parent="1">
          <mxGeometry x="605" y="420" width="50" height="30" as="geometry" />
        </mxCell>
        <mxCell id="3euveo2As2rDuUt7kVab-18" value="" style="endArrow=none;dashed=1;html=1;dashPattern=1 3;strokeWidth=2;rounded=0;fontSize=14;" edge="1" parent="1">
          <mxGeometry width="50" height="50" relative="1" as="geometry">
            <mxPoint x="240" y="530" as="sourcePoint" />
            <mxPoint x="240" y="480" as="targetPoint" />
          </mxGeometry>
        </mxCell>
        <mxCell id="3euveo2As2rDuUt7kVab-19" value="" style="endArrow=none;dashed=1;html=1;dashPattern=1 3;strokeWidth=2;rounded=0;fontSize=14;" edge="1" parent="1">
          <mxGeometry width="50" height="50" relative="1" as="geometry">
            <mxPoint x="413" y="530" as="sourcePoint" />
            <mxPoint x="413" y="480" as="targetPoint" />
          </mxGeometry>
        </mxCell>
        <mxCell id="3euveo2As2rDuUt7kVab-20" value="" style="endArrow=none;dashed=1;html=1;dashPattern=1 3;strokeWidth=2;rounded=0;fontSize=14;" edge="1" parent="1">
          <mxGeometry width="50" height="50" relative="1" as="geometry">
            <mxPoint x="590" y="520" as="sourcePoint" />
            <mxPoint x="590" y="470" as="targetPoint" />
          </mxGeometry>
        </mxCell>
        <mxCell id="3euveo2As2rDuUt7kVab-34" value="Î¸(1)" style="rounded=1;whiteSpace=wrap;html=1;fontSize=14;" vertex="1" parent="1">
          <mxGeometry x="160" y="555" width="30" height="25" as="geometry" />
        </mxCell>
        <mxCell id="3euveo2As2rDuUt7kVab-35" value="Î¸(1)" style="rounded=1;whiteSpace=wrap;html=1;fontSize=14;" vertex="1" parent="1">
          <mxGeometry x="210" y="555" width="30" height="25" as="geometry" />
        </mxCell>
        <mxCell id="3euveo2As2rDuUt7kVab-36" value="Î¸(1)" style="rounded=1;whiteSpace=wrap;html=1;fontSize=14;" vertex="1" parent="1">
          <mxGeometry x="260" y="555" width="30" height="25" as="geometry" />
        </mxCell>
        <mxCell id="3euveo2As2rDuUt7kVab-37" value="Î¸(1)" style="rounded=1;whiteSpace=wrap;html=1;fontSize=14;" vertex="1" parent="1">
          <mxGeometry x="309" y="555" width="30" height="25" as="geometry" />
        </mxCell>
        <mxCell id="3euveo2As2rDuUt7kVab-38" value="" style="endArrow=none;dashed=1;html=1;dashPattern=1 3;strokeWidth=2;rounded=0;fontSize=14;" edge="1" parent="1">
          <mxGeometry width="50" height="50" relative="1" as="geometry">
            <mxPoint x="430" y="567" as="sourcePoint" />
            <mxPoint x="350" y="567" as="targetPoint" />
          </mxGeometry>
        </mxCell>
        <mxCell id="3euveo2As2rDuUt7kVab-39" value="Î¸(1)" style="rounded=1;whiteSpace=wrap;html=1;fontSize=14;" vertex="1" parent="1">
          <mxGeometry x="449" y="555" width="30" height="25" as="geometry" />
        </mxCell>
        <mxCell id="3euveo2As2rDuUt7kVab-40" value="Î¸(1)" style="rounded=1;whiteSpace=wrap;html=1;fontSize=14;" vertex="1" parent="1">
          <mxGeometry x="515" y="555" width="30" height="25" as="geometry" />
        </mxCell>
        <mxCell id="3euveo2As2rDuUt7kVab-41" value="Î¸(1)" style="rounded=1;whiteSpace=wrap;html=1;fontSize=14;" vertex="1" parent="1">
          <mxGeometry x="575" y="555" width="30" height="25" as="geometry" />
        </mxCell>
        <mxCell id="3euveo2As2rDuUt7kVab-43" value="Î¸(1)" style="rounded=1;whiteSpace=wrap;html=1;fontSize=14;" vertex="1" parent="1">
          <mxGeometry x="625" y="555" width="30" height="25" as="geometry" />
        </mxCell>
        <mxCell id="3euveo2As2rDuUt7kVab-45" value="" style="shape=curlyBracket;whiteSpace=wrap;html=1;rounded=1;fontSize=14;size=0.5;" vertex="1" parent="1">
          <mxGeometry x="110" y="280" width="20" height="300" as="geometry" />
        </mxCell>
        <mxCell id="3euveo2As2rDuUt7kVab-48" value="" style="shape=image;verticalLabelPosition=bottom;labelBackgroundColor=default;verticalAlign=top;aspect=fixed;imageAspect=0;image=data:image/png,iVBORw0KGgoAAAANSUhEUgAAAGcAAAAuCAYAAAA1FgddAAATc0lEQVR4nO2c228bx/XHP1xyl1ySIileJVFUrJurypIdx1aTFk4LG2iCpECDFGj72H+g/0X/kfa5D22fagRu7BQt3DiO29SRZdlRZN0okZJ4EcXrLrm/B2PGQ5q2I8a/oA8+AMGLdmZnzvV7zpmVy3EchwGo0+nQ6XRwuVxomobL5QLAcRw6nQ6O46BpGpqmDTL9KwIG4pyQpxDMU5P2COsVDUaeQQcK5rtcLmkt4rv6ekWDk2tQt6aSbdvYtg2Ax+PB4xlY5q9IoYG4qMqz3W5Tq9WoVqsABAIB/H4/brdbXvPKggajEwun3W5zfHxMtVqlXC6Ty+Uol8u0223S6TTj4+P4fD7cbjeO40hgINyfeIf+Qut3jZhHdZUCjKixTdxLnUvM0et2T0KqMqpjxZr6rV8FRb3r+6b3P7FwWq0W29vbrK6ucvfuXa5fv06xWCSZTPLrX/+aoaEhkskk8JiB7XYbwzC6GPyshfZe0+l0cLvdch5N06RFiu9ijna7Le+ljhfz27YtAcxJGNS7rt71Ak8piFiPbdt4vV4cx6HdbtPpdE7k9k8sHMMwGBsbA8CyLO7du0elUqFer2Pbdpc2Ca2xbbsLVquAQWxCME5lfq8AxPVCaOr88DjedTodeb2maV1CHhSo9FpsP4vpJbGPVquFpml4PJ4uq2o2m7jdbnRdf+ZcJxaO2+1meHgYj8dDq9UinU6TzWaxLKtLu8Rnt9stmadqtOM4Xa5PbBx4SuvFWCEwx3Gk9vXmVOK7ej91XYPGv36pQa9bFaS6UHF/1cWJPbwIiw0Mq4LBIKlUilgshs/no9FoSM3XNE1ai9AOQY7jYFkW7XYb0zS7zLzZbFKr1Wi32/h8Pnw+n2S24zjyHh6Pp0tYuq5LK1HvozKu3W7jdrsHQpIvyutUZXK5XFJRAbxeL7Zt02q1pItzHAfTNF+oKCdeqeM4tFot6SbUgNfv2l4mWZaFy+VC13Usy5Kb1nUdj8cjmSzcghCyx+PB5/N1xSSXyyUFJag3Nol1CbdiWdZTY1603945+5HqslUXJtbe61aFcom99lvPQMLpZ5KqCYvvvW5FNW+Px4NlWVLjVNck/HK73e5iUK8bVK8VL3FveOI+BJNs25bznMS99QMCvXFH5YsaD3uBhFh773s/OrFwNE3D5/N1LUrdvGC2GhMsy8LtdncxxXEcieJU19ULFAzDwLZtGo0GPp+vK9iLedrtthS0aZoS4TWbTTweD4ZhnHSbktS9iPsJRVBRn0jEHcfpSiXUGKgiTyFA1eX30sAxp9PpyMX0upFeSxGbq9VqPHr0iGw2y/7+PsfHxzQaDTqdDkNDQ0xMTDA1NcX4+HgXQhNuSAi53W6ztrbG2toa2WxWWqFt2wSDQWKxGLFYTCbEpmkSCoXw+XzPRUfPI1XTVUgOj1FroVAgl8uRy+UoFoscHBxgGAYffPAB8Xgcy7LI5XKsrq6ytrZGvV5namqKM2fOMDY2htfrfTnCUbVHuJLe/KFXa3K5HI8ePeLBgwcSXlarVZrNJvV6nfX1dR49esTGxgbnz59nfHyc4eHhpyyzVCqxu7vLp59+SqlUkprabDYplUpsbGwQCAQYHR0lnU4TCAQIh8PMzc2RTCZlHjTInntRn4o+q9Uq2WyW5eVl7t27R6FQIJVK8c4771Cr1cjn86yurvLll1+ysrLC1tYWb7zxBqZpEovFXq5w+sUeYaq9rsqyLG7dusVf//pXCoUC77//Ph9++KF0Qbu7u/zhD3/gn//8J1evXuXtt9/mgw8+4O23334KNKyvr3Pjxg1u3rzJu+++y69+9St0Xader3Pv3j1+97vfsbm5id/vZ3Z2FtM0SSQShEIhgsHgwNYj3GfvWFVIQkB37twhEAgwPT2Npmns7Oxw+/ZtPv/8c6rVKo1Gg6+++gqv18vMzAznzp3re8+BhCPyF4GwxMLVxcJjaxJM+/zzz9ne3ubKlSssLi4SDAalDw6FQrz33nu0Wi2uXbvGnTt3SCQSxGIxJicn0XVdxrK1tTX+9a9/0Wq18Pv9hEIhNE3D6/WSyWT4wQ9+gGVZFItFRkdHuXjxIvPz84yNjREMBk+E1PrtW5DjOF1IMplMkslkGBsbwzAM+X13d5dyuYzjOPz85z+nUChw9+5d7t+/L1OJZ9FA/Zxen6siK5Ucx6FSqXDr1i2+/PJLarUa586dY2pqSmbznU4Hn8/HwsICi4uLjI6Oks/n+fe//83t27ep1+syuSyXy2xsbLC+vo7X6yUQCKDrOm63G8MwiEQiLC4ukk6nJXCZnJzkwoULJJNJfD7fU6hSrFONKb3JcL/SjTrO7XYzNDSEaZrSc8RiMdLpNPl8nlarxfj4OOfPn2dqaopgMIhpmgSDQcLh8DMh+rdqtgntUTNeddPtdpvDw0M+/vhjHj58iGmaZDIZGUtarRbwOFHTdZ2JiQkWFxcxTZMHDx5w48YNjo6O0DSNdrvNxsYGe3t7WJbF8PAwwWCwa00ej4eJiQmSySQej4dCoUClUpHuSCAosV51rBCCQH7iNxWOq1De5XJhGIb8zeVyUSwW2dzcpF6vMzQ0RCKRoFgskkqluHTpEqZpUiqVyOfz2LZNOBwmlUo9E7EN7NaE1huGQSAQkNBSbNbtdlOtVikUChSLRQDC4XBXNi9cjBg7MjLC7OwsLpeLer1OtVrl+PiYer1Op9ORDLYsi3w+z9HRUZdCeL1eRkZG8Pv9NJtNyVBRQuotfIp42C9pFfvsjS+qQHt/LxQK7OzsyL0Xi0XOnDkj0aemaZTLZba2tmg0GkSjUSYnJ/uCgYGFozJE5C5CWKpVVSoVDg4OqNfrGIbB0NBQV5VAzQUAIpEIExMTUsOq1SqlUolGo4HX6yUcDhMKhdB1ncPDQ/b39ymXywQCAakYYj1ut5t0Ok00Gu0qJwlmipZHtVqV+dT4+Di6rkur7lcV6EWjQsjCS2Sz2S6lUD1Fp9OhUCiQzWbRdZ1YLEY8Hn9m3DmxW1OZKWKBYGKr1ZImLoLy3t4e8LgJFwwGpUW0Wq2uSm+r1cI0TUZGRkgkErjdbsrlMgcHBzQaDfx+PyMjI4yNjRGJRDg+PmZ7e5vNzU2Z/NZqNakM4XCYt956i8nJyS7GCmbu7Oxw69Ytbty4wZ/+9Cf+8pe/UC6XJeI8Pj6WAnoeL4Rgjo+Pyefz7O3t4TgO8Xic1157jUAgIJlfr9fZ39/n4OCARCJBNBp9LkA5seWo2bnQLLEhtX6k6zp+vx+/30+r1aJSqXB4eIhhGPj9/q5M3+VySc0WViiKo+FwGNM0gcftirNnz/Lee+9x/fp1Hjx4wJ///Gd+9KMfMTo6SqvV4u9//zuGYfD+++9z+vRpAoGATF7VmpyoTty+fRvbtpmZmaFWq9FqtfB4PBJN9gq1X5OvXq+ztrZGLpeT1jIzM8PExIQsdjYaDTY2NigWi5imycTEBNFo9LnI8VvFHLVwZxiGjCWiUCiydcMwKJfLlMtlGo2GHKP2awQjROXB5XJhmiaRSERWp91uN9PT0zQaDbLZLMVikVwux87OjmSYpmnMz8/z/e9/n9HRUbxeb1ddTswzNDTE0NAQW1tbhMNhhoeHuwK+KPmosVT9Ll6C8aurq+TzeUzTZG5ujsnJyS53Vq/XefTokVTQmZkZUqnUyxcOPC5Z1Ot1WaH2+/3A4+ZSo9HANE3C4bD0+8VikWq1yt7eHmNjY0SjURqNBrqu4/V6ZQmm2WxiWRZ+v59kMkkkEpF/0zSNeDzOwsICm5ublMtleR/hFj/88ENisRjBYLCrwq3GRU3TGB4eJp1OY9s2sViM+fl5KSChNOrZPNUFq3mc4MX9+/fJ5/NEIhHeeOMNJiYmgCfJa71eZ2tri1wuByDLNr0F1G8tHIG0hMm2Wi1ZZPR6vbJYqWka0WiUxcVFqtUqR0dH3L59W9a+xHhRxi+Xy+zt7dFsNpmcnOSHP/yhzE1EoL5//z4rKyu43W4WFhYkEhIFTsMwJDStVqtdCbP4DLC/v8/6+jqdTodIJCIhrXDRz2JYb7VZHHDZ2tqi2WwyOjrK9PQ00Wi0Sxkcx2Fra4tKpUIwGCSZTEp3mMlk+iK2gY9jCrMW1ViRH0A3YopEIrz11lvMzs5iWRb/+c9/ePDggcxf1Nwjm83y4MEDPB4Pc3NzvPnmmxKJaZpGs9lkeXmZv/3tb2xvb1OtVrEsi0ajgWVZWJZFqVSSQbfZbD6VHAum5/N51tbWcLvdRKNRwuEwBwcHbG9vs7e3R7Vapd1uPyUkFYY7jiNBSD6fR9d1MpkMqVQKn8/X1R22bZudnR2azSaRSEQm1fv7+5JvvTSwWxMMFVVlgKOjI6rVqjzI4HK5CIVCvPPOO+zu7nL37l1WVlaYmZlhYWFB1r5cLpf027du3SIcDnP27FkuXLgg57Ftm6OjI5aXl7l27RqnT59mfX2dRCJBOBwmHA4TDAbRdR3DMAiHw5w5cwafzydLTALqezwe8vk8X3/9NV6vl2g0iq7r3Llzh0KhgN/v5/XXXyeZTEp3LQSrxiXHcSgUCmxublKpVEgkEszOzhIIBGi327RaLZkoizgJEI1G2d7eJhQKSbDzUoQjyuOrq6t89tln3Llzh2KxiNvt5ubNmzJAnj17Vm7M6/Vy+fJlgsEgn3zyCVtbW/z+97/n4sWLJBIJNE0jm82yvb3N5OQkS0tLzM/PS18v3EMoFGJycpLp6Wny+TyHh4eYpindkdoj8fv9xONxLl68yNLSEplMRro7x3HI5/NsbGwQDof56quv+OMf/yhdTz6f54svvuDKlStcunQJoAv8CMuxbZt8Ps/6+jqtVotUKsXs7GxXV1f0mWzbRtd19vf32d7eplAoMD4+LhHdSxEOPGmgaZrG7Ows09PTEt0EAgHZ5xGkaRozMzMMDw9jGAYrKyuUSiUKhcLjRXg8HB8fE4/HGRkZ4dKlSwwNDXXVuABM02R0dJTZ2VmCwaBEXsJ6hbbWajVKpRI7OzvyuFQ0GiUSicjq8f7+Pnt7e0xNTcmxyWSSg4MDCoUCGxsbjI+Ps7S0JLW7X1VAVCUuXbrE4uIiU1NTsqzjdrtl7meaJktLS2SzWUKhEIlEQr6elUudWDi6rjMyMkIymeQnP/mJZKAqCDV/UeFrKpXiF7/4BZVKhVKpxNHRkax7Cb8fCAS62taCEeJzMBjk9OnTXL58mWg0imEY7O3tycArBFMoFDg4OODo6IibN29y/vx5wuEwnU6HfD4v/3Z4eMi7777LL3/5S3Rd57PPPqPdbnP16lVyuRxHR0cSZPSeYjUMg4WFBebn5+X9e6/x+XzYts3Y2Bi//e1vJRI0TVN2TJ9F36plMMg4XdcJhUKyHCOCrmmaeL3ep05IinGCyRsbGwDMzMzIAmcmk5HxRCSvApb/4x//YHNzU8auWq3G+vo6+/v7BINBfvrTnzI/Pw88VizDMGRuJFoRz8tF1Or8865RDzsKPryIh//vJ87VrqH4LnyyaZp9n+VRrVGAjt3dXT755BNs22Zubk66hN64pPbnm80mX3/9Nfl8XjKi0Wjw8OFDyuUyqVSKpaUlXnvtNbk+cTxLlPTFuYVBSa1oq0L+JodMvpPHAfptTi0OqiTqbCKg1ut1crkcDx8+5IsvvmBsbIyhoSEZ49Q2NiChs23bHB4eyjxGCNGyLFZWVmQulclkiEajch2ieJlMJp9Cayel3tb2Sc/MfefPavS2uNWyCzzx5eJ3r9dLMBiUMHltbY2rV6/icrmYmJggHA53VZ47nQ57e3tks1kqlQrxeJyf/exnDA8Pyzxoe3sbn8/H3NwcgUAAeGIxGxsb7O/v8+Mf/5iZmRls2z7xUapn7bG35SDc9ksDBIOQGjt6f+t9hyfnjEVO4vP5iMfjnDt3jv/+97+sr69z/fp1UqmUBBKqq6zVatRqNbxeL+l0mrm5OQAODg7Y3d2lWCzyve99j9nZWXnMq1arsby8zMHBAdFolAsXLpDJZLrWNQgN2hKH71g4QJelqNr1rEc0REKbTqf5zW9+w7Vr1/joo4/49NNPZduh0WgQCASIx+NkMhmWlpZ48803mZubw+/3y8PvuVyOtbU1LMsikUjIRpfjOJRKJT766CMsy+Ly5cssLi4Sj8cHYm6/lvYg13wnwlHL62qhr/ddzeLF78K1ud1uTNPkypUrzMzMUKlUKJfL1Ot1fD6fDODRaJRoNCpzKrUJJw6MjI2N0Wq1uHv3LsvLy5TLZSqVCqdOnSKdTnPq1ClZH3zeob+T0jdxZV18c76t3X5DUi1E9cG9rq5f3gRPBChqaC6Xi0qlQq1WIxgMYhiGdIEiI1erBgCVSoWtrS0+/vhjDMMgFovRbDY5OjoC4PXXX+fUqVNEo1Ha7TYej+elCkfd2zeyru9aOL0HJl7UaVQfpwe6HkJSqXej/cbWajWazSZ+v19WyQH8fj+BQKDL0p5Xmf4me+03tlfxej1HL30nwlF7IP1KIL2/q/FIXCdyGfUatd4l8hy17dsbx8QjI+pnUaEQZ+PUjq6ag50Urb1ojyq91H7OoNTPlFUh9Lv+RXOoY3vn6R0vLFV9PFF1syrs/f+gfvM+zza+M7f2ik5Or/73yf8wvRLO/zC9Es7/MP0fyZ/ddB5vbV0AAAAASUVORK5CYII=;" vertex="1" parent="1">
          <mxGeometry x="42.83" y="415" width="67.17" height="30" as="geometry" />
        </mxCell>
        <mxCell id="3euveo2As2rDuUt7kVab-49" value="æ·±åº¦" style="text;html=1;strokeColor=none;fillColor=none;align=center;verticalAlign=middle;whiteSpace=wrap;rounded=0;fontSize=14;" vertex="1" parent="1">
          <mxGeometry x="46" y="460" width="60" height="30" as="geometry" />
        </mxCell>
        <mxCell id="3euveo2As2rDuUt7kVab-50" value="" style="shape=image;verticalLabelPosition=bottom;labelBackgroundColor=default;verticalAlign=top;aspect=fixed;imageAspect=0;image=data:image/png,iVBORw0KGgoAAAANSUhEUgAAAJMAAAA4CAYAAAD5Pso4AAAfBUlEQVR4nO1dV3Mb1/X/ofdCNBJEIdiLCi3Zjiw7VjJJxqOZFGfimTzkC+QD5AvlNa/OTF6ckRPLkS07NmXZEkWJBUQnUYhedoHd/4Nyrs4uQVukJEf5j8+MxwSwe/fee9rvlLsyqKqq4gf6gZ4DGf/bE/iB/v/QD8L0Az03+kGYfqDnRub/9gROIlVVxX8GgwFGo1F8DwAGg0Hz90lj8N9oPKPReOK9egh50tgvgmi++rmpqgpFUY7tA62FiK4ZN2cak55x0nP452+bJxG/9qW1TIqiQJZl9Pt9DIdD8d1oNMJwOBSbORqNNBvFia4hGo1GkGV57L38HnqGoigveJXj50rCwz9LkiT2AQCGwyEkSRJzVFUVsixjNBppxuS/83WpqnpsjfrnAjj2ma4Zt3eGly2ao0UDj6VeURQhPDabDQaDAaPRCP1+H2azGTab7Zil0QvXOA3n39Hf3W4XZrMZVqtVzOckTX8R6+YCRes0Go0wGo0YjUbCMhEjDQYDTCaT5n4SDrPZrLHs/DnD4RCj0QhWq1XcPxwONZaPX280Go9ZLy42dM9LaZloQ0wmk1gsFzAAGg3Ta46eKXS/qqpiPPqNxiChVRRFMJAL5osibiH1z6N5KYoCk8kklIYLEt3Dma63HHwvaP20Ttofeg7f03GCSOPo3S3wElsmmqwkSTCZTDCbzTAYDEKrzGazYD63TiSIZFFoc3u9nrBk/FknaSRnnP6350k0N4vFIiwiMdRoNEKWZQyHQ1itVjEPslqqqsJsNgvhsVgs4jcak9Y7Go2gKArM5icwWS8og8EAsizD6XRqlI5bPVI0/j19fukAuN500//1QNxoNMJisRzDUFxjaQNVVYXFYoHRaBQbwhlG2t3tdjUMOElDn/d6uaAAT/DiYDA40ZXTnLkyyLIs/uYujO/dcDiE0WgUv3EBMpvNGmHhcxxnJfV78tIJE6CLEBizCe+QsEiShFarhXK5DIPBALPZjF6vB5vNBo/HA7/fL8ayWCyaMUhITCYTut0u2u02JEmC1+uF3W5/4e6Nr9VkMmkssqIoaLfbuH//PsLhMFKplEaARqMR6vU6jo6O0G63IcsyAMDlciEcDiMQCAiGA9oIjizacDhEt9tFp9OBoijCMhLWGmfhiUgh9bx6KYWJEwkOAKFVZKqr1So2Nzfx8ccfw+PxIBAIYHNzE06nE8vLy3jnnXcwMTEBABoXSQJKzMlms9jf30c0GoXD4RCbzTX4RRE9i6yrw+EAAFQqFfz5z3/G+fPn8dvf/haRSAQOhwMGgwGdTgd3797FrVu3sLe3h0wmA0mS8Pbbb+P69eu4cuUKZFmG2WwWwgE8seaKoqDT6eDRo0eQJAlutxter1e4SRJYskLEA1JImjftK9FLK0w0WQ4UyaoMh0O0221sbGzgiy++wOTkJBYWFmC323Hnzh1hqa5duybu6/f7QhBpwxqNBj777DOoqopQKIRwOAy73S5cx/eVY+IKYzAYUC6Xsb29jWazCZvNhmAwKFwdANjtdszMzKDdbqNWq0GWZfR6PcRiMQQCASE0tG/k3rgbtNlsiMViqFQqqFaryGQySKVSWFhYgMVi0QB+nuPiXoLmS/RSChNNnn/m1Ov1cO/ePWxsbCCbzeLNN9/EhQsXAACzs7MoFotwOp0aEK0Hj8Swe/fuYX5+XsMIcn+0cS9SqEhoScgBoFAoYGtrCxMTE5iamoLP59O4ZqvVing8DlVVcefOHYHz5ubmEA6HxyZqKVolS2O1WhEOh6EoChqNBrLZLAaDAYxGI+LxuNg/Hu2elFIheumESc94s9kMSZIgy7Iw89VqFX/5y19QLpeRSqUwOzuLQCAARVHwm9/8BrIsw2azaVwcuS/K13zyySf48MMPsb6+jrm5OUQiEY3mcQDPGf0i1qt335lMBltbW1hfX8fs7KzYD85Ui8UCi8WCTqeDwWAAm82GcDgMj8cDABorRMposVgEyKa9CIVCsNvtQkEfPHiA3/3ud0gmkyKqo4iSW9Bx9NIJEzen9Jm7plKphG+++QYPHz5EKpXC1atXEQgEBDaYnJwUlsVisYgxiFqtFjY2NrC5uQmj0Yi1tTXEYjFNzgl44npeZFqAiAD4YDDAYDBAuVxGs9nE7OwsJicnNXvD3f1oNEKpVILJZEIymYTX64XJZNIoAK2BR6b6fJHb7cbKygrS6TS2trZw7949MabVaj3GE+BJ3o/vzzMLE496nramc9J1+giKM5Yyv/v7+/j8889RrVZx5coVrK+vw+VyiXGdTuexMcjS9Pt95PN5fPDBB+j1epifn0cqlYLP5zu20XqcQGM9bwtF0dxoNMJgMEA2m8XR0REsFgtisRgmJiY0wQJZmsFggGaziXK5DKfTifn5eU1KY1yIr98PIovFgmg0isnJSZjNZmxsbMBqtcLn8wnXz/mhL8HQWM+kdjz3cFIorc8Vfde1vH7EcQJZqO3tbdy8eRNGoxHhcBjhcFgTzvKxCSdQ6FwqlfDFF1/gww8/hNVqxc9+9jPY7Xbh+ig5ajKZIEmS+J7Pn9O4DDz//jRE7uTOnTtoNptIJpMIhULCtXMyGo2o1+vIZDJot9sIh8NYXl7W4CJyTWTxyFpxK8/DfoPBgPn5eZw7dw6ffvopPv30UxSLRciyLKJacsmUIOW5L+AZLZMekLXbbZhMJk3kQb+dlJ7nyUPaKBqbM0qSJBSLRWSzWXS7XcRiMUQiEVitVk0Na9zzCIvkcjl8/fXXAICJiQkRvemz3YRJ9Gad6lmUcdYnSPUuchx9myXv9/t48OABjEYjzp07J6wsz+vQnh0eHmJ3dxeyLCMYDCKVSmnCe8JGtBZaIxcOGpPWEolEMDc3B4PBgHQ6ja+++grxeFykK7jbH7e+MwsTZzS3KAQIadJmsxl2u12E561WC6FQCFNTU8f8uDCX/9kEWZZxeHiIXq+HVquF7e1t7O3tYTAYwOl0otPpIJ1OIxwOC7Cod1U01mAwwP7+Ph48eACn04lgMAiXyyUwAY9aVFVFv99Hr9dDr9fDYDBAp9OBwWDA4uKiEODhcIhms4l6vQ5ZluH1ehEMBuF2u8fmp8a5cVIaSZLQaDSQyWSwuLiItbU1kTwdd1+lUkE6ncZoNEIgEMDU1BSGwyFyuRyazaawUA6HQ8yJKgbcGnFl9nq9iEaj8Hg8ODg4wJ07d/DWW2/B5/Mdw5Dj2l3OLEw8tU6mz+12Y39/H19++SUKhQJMJhMCgQASiQQURUGxWMStW7dw/fp1/P73vweg1WKeKAOAdruNjz76CI8ePcLBwQEajQbS6TS63S4ODw9x48YNZLNZ/OEPf0AikdAwTG9VqtUqdnZ2sLOzg6WlJUxMTAirRPOga3u9HvL5PHZ2drC7u4tCoYDDw0N4PB786U9/Qjwex3A4RKPRwD//+U/cvHkTnU4Hb7zxBn7+858jlUodE6Zvc+2KouDo6AjZbBa1Wg0+nw9LS0tC0PVlEbPZjHq9jmw2C0VR4Pf74fF48PXXX+P27dvY2NhAo9GA3W5HKpXC9evXsba2hqmpKTEmJ14lcLvdCIVCKBQKuH//PorFIsLhMLxer2bOzyVpSVYIeFIMHQwGKBQKuHnzJgaDAfx+P9588004nU5hku/fv4/NzU3UajV0Oh30+32xsHFjAoDVahURhdfrxYcffohutwu/34+33noL09PTCIfDcLvdQsv4AmmsbreLvb09HB4eQlVVsTn6e3jOh7S4Vqvh3r17kGUZCwsLGI1GqFQqyGaz+Oqrr/Do0SM0m02k02mRYIxEIrDb7WMFSc9Isgq5XA6bm5uIx+OIxWKagjRnoKIokCQJ5XIZ1WoVqVQK3W4Xn3zyCWq1Gvx+P15//XXkcjns7e3h7t27ArRTqYgnHnmQQZ8p295qtZBOpxGPx4UwUc8UZcN5ReFMAJyjeVmWkclkcPv2bdy8eRPVahXJZBKvvfYafvSjH2FlZQVGoxHZbBaPHj2Cx+OBy+XSNHHxMTk2sFgsmJubw/r6OtbW1sQ9kUgEV69exbVr13Dp0iV4vd5jYJCP1e12sbOzg0qlAqvVikAgIPAId7O0mWazGV6vVwjpwcEBZFmGz+dDt9tFsVjE/v4+6vU6bDYbAoEA2u02SqUSSqWSAPw0PtE4nEHf5fN5bG9vY2lpCYlEQpMa4fMcDoeo1Wo4ODhAvV6H3+9Hv9/H/v4+LBYLlpaWcO3aNbz99tuYmprC4eEhbt++jYcPH6LT6WjghB6qkFcIBAJwuVyQJAn7+/uoVqsaPlGFQL++U1smAnRU2e52u/jHP/6B999/H+fOncPVq1dx5coVTX6C2iSMRiNeffVVzM/PHzO3vF5GobLBYEAwGITH40Gz2QTwuJQQjUYxNzeHeDwO4LEF4wCaFknj9/t97OzsoNFowO12C6zE12QwGDTJw2AwiGg0ikgkgtFoBJ/Ph2g0imKxiG63i9FohPfeew+tVguff/45PvvsM1FopfzWOKHREwnIwcEBisUi3n33XSQSCdFmo79PkiRkMhkUi0U0Gg1UKhWkUinMzMzg0qVL8Pl8AIBEIoHd3V18+umnyOfzKJVK6HQ68Pl8YlyyWLzzgIrkTqcTqqoil8uhVqtpoj89NBA8fHox0m6MwWBAs9nEX//6V9y9exc+nw8//elPsba2BqvVKnCUoihotVro9/swmUxiopRco0nyyIJCWgrVW60WisUiBoMBwuEwFhcX4Xa7YbVaRfsGB4PUngs8sU6Hh4doNBoAHgskMZznkfQ5pUajgVKpBAAIhUKIRqNoNBrwer1YX19HOBxGt9tFLpeDwWCA1+vFxMTEsRaab6PBYIC9vT3UajVNFpuwpJ7Zg8EAW1tbaDab8Pv9wm2vrq7C7/eLZ3s8HkQiEUQiEQBPLD9FpdzF6ffAZrPBbDZDlmXU63XRWaCqquhEHRcYnEmYVFVFr9dDLpfD3//+d5TLZSwvL2N9fR3RaFT4UtqISqWCdrsNi8UioigifZ6KR1QkaM1mE/l8Hr1eD36/HzMzMyL9wEPVcZ2G5P6azSY6nQ5Go5FGmIj0kYmqqqhWq8jlcgAeCyD9NzU1hbm5OdjtdtRqNezv70OWZUxMTCAWi2mq69+2h1S9v3//PtrtNqLRKLxerya1QvtD1O/38ejRIxwdHcHtdmN6ehrJZBKxWEwwmbyAzWYTfUqEA/X5OEoT8LXb7XaRq2q32xgMBseu188LeAZhyufz+PLLL7G5uQmfz4c33ngDbrdbMIYYK0kSCoWCiC5WVlYQiUQ0fnc4HGIwGAjTTuC31+sJAF2tVtHtdgVG+TbtH1cGIWulKAqcTqcAuN92cODo6Aj5fB4AhEu5cOECUqmUWF+73cbh4SHa7TZCoRBWV1dFXuak+dH3o9EIzWYT//73vzEajXDhwgUNcNcTdUvs7++jUChAVVVcu3YNa2trwnVRXxKlYdrtNoxGIxwOh3Dv49IWpITUuUrC1Ov1hPvnVpuMBaczRXPD4RD37t3DjRs3MBqNMDc3h4sXL4piKrmofr+Pw8NDbG1tQVEUzM3NCa0j6eaJP8ItXLMMBgPy+Tw2NzehKAri8bhg2El5G326gTfjE1P0SUcemQCPLUC1WkWhUIAsywgEAlhYWIDf7xeYUZIkHBwc4PDwEMlkEpFI5KnKLfQsUph0Oo2FhQVcuHABHo/nGO6jz71eD9VqFeVyGQ6HAysrK1hZWUEoFBLzoeutVqu43m63w+VyCSHhVphbKQo+SDCppZiKxnw/KSnK6dSWibr8Hj58iPv378Pn8yGVSiEejx8DwkdHR9jZ2UE2m4XNZsPs7KwQJi44VJQdVxlXVRWHh4fY29uD2+0WobPeTemTn/qFUhchAFEqAbTRI/1flmVUKhVUKhV0Oh04HA7EYjGhDDR3iqparRZmZ2cRiUSOuetxgkTXNJtNAYy9Xi+SySQcDsdYYTIYDKjX68jlcmg0GggEArhw4QKmp6cFbOB4SFEUdLtddLtdTE5OIhgMarL6XBG5MPHKA2Ekjt84ztWPc2ph6vf72N7eRj6fh6IoWFxcxOTkpAbMEWUyGXzxxRcYDAaYmJgQC6daGj8LxsNyfaq/2Wyi3W5jZmZG9OCMS5oREYgny2OxWOBwOIRwkmWi53JwaTA87mR8+PAhyuWyqKgvLi4iHA5ryhLpdBrlchlmsxnxeBzBYFBz+oPWNi4UN5vNyGQyuHPnDoLBICYnJ0UOSDDnP/tJe1EqlfDgwQNIkoRYLIZz585pSh02m02MUa1W0Ww2YbVasb6+jpmZGY3F4cpEew5AtPNSMyH1U9G+kZLz+inRqd2cJElIp9Oo1+twuVyIxWLwer2anpvhcIhqtSraGXq9HkKhkNBsfuKCn5bgGXCj8XGDfKlUQr1eh8lkQjweF1V0rh16RnH/TgumvBGVSSRJOsZouleSJGxtbaFUKsFut+PixYuIx+OaXNZgMEA+n0e9XofFYkE8HhcVdj4vPr5+vqVSSZRPUqmUpk5Ie0HMVlUVtVoNhUIBFosFyWQSy8vLx5KjhDE3NjZQKpUQDodx5coVzMzMHGsQpP3he6aqKjqdDgDA7XaLyJvXP09y5ae2TLIso1wuo9VqwWw2iwQX37x+v4+trS08evQI5XIZqqoiGAxienoakiSh1+tBURQBBrlpJhdJ4D2bzaJer8NutyOZTCIQCJy4GL4x3DQbDAYRclPGnsA4nzeRJEnY2dlBtVqFy+XC+fPnRZRKzO71eshms2i32/B4PKJU0W63NfUvYjJ/jqI8PjBQLBZRLpexsLAgXDd3M/rTt9VqFcViEXa7HZOTk5iamjrm7ik7fvv2bXQ6HaytreHcuXMIhUIaa867KLkiUoQ5Go3gcDjg9XpFcfukNArRmaI5frLBZrMJYEfU6XTw0UcfIZPJwOv1wuVywe/3w+12o1Qqodlsio2jY84E8ngyk6xgrVYTPTvhcPjExRAj9GS1WpFIJODz+UQ5gJr49Yc7gccKk8vl0Ol0EAgEsLi4KEAuWY1Op4OdnR0MBgNEo1EEg0F0Oh3s7u5iMBhocJs+HJdlGfl8HoVCAb1eD4lEAqFQ6AlT/qMMZKGpSH5wcIBcLgePx6MB6jR/i8UiCuL/+te/4HQ6cf36dUQikWN4iYf2PAiRZVmUu4xGI2KxmMhncQXRp1KAM7g5o9EIl8sFp9OJ4XAo2hTC4TDa7Tb29vaQz+exurqKVquFbDYLl8slsryHh4eiYZ0DbS4gtOlkmfr9vkga0nP1xU99ZMbdlsvlwtzcHEKhEGRZRjabRaPROBbZDIdD1Ot1pNNpVCoVhMNhvPLKKyLlQS7YYHjS5djv90XbKzGD2ob1+RuekX/w4AEGgwGSySSCwaBwV3pgTEw/OjrC0dERRqMRlpeXMT09rXGJsiyj2Wzi5s2buHXrFs6fP4833ngDa2trQiAJMxFQ59iUd000Gg20222YzWYsLCxgampKwBEeYD2zMFmtVszMzGBqagq7u7t48OABgsGgSBKWy2UMh0O8/vrrSKfTaLVasNlsqNVqyOfzQnioc5JHKzwC4q5EVVUkEgkEAgHYbDaxESctjguTwWAQLjIajcJut6NYLKJerx9zRar6uLVjd3cXnU4HyWQS58+f1xRHaczRaIRGo4FOpwNZlnF0dIRQKKTp9BwnSOTiNjc3oaoq1tbW4PV6NQ1+emw1Go0gSRLsdjsikQh8Pp8oOFP4Tl2XZC2vXbuGy5cvIxqNQpIkoXTcIukToxQUlctlyLKMcDiMmZmZY4EF7+zgWPDUwuR2u3H16lVsb2+LVof3338fH3zwAS5cuIBf/OIXuHbtmgCjtVoNw+EQ29vbWFlZwY9//GNMTU2JyI1cDv2tKIqIFlqtlnCVKysr4sQEN7Xc9+uZxyMnavxKJBIoFotoNpsaF2c0Pj4eVK/Xsb+/L8oUiUQCdrtdMJsEiYKIZrOJYrGIYrGIubk5rKysnGiRAIgSxdbWFubm5nD58mWNAHKQzMfx+/24dOkS+v0+MpkMPv/8c/R6PRgMBpRKJdHHtLq6infeeQfT09OiDseVlfrMOMygvBG573w+D5vNJhLM+iQst9CczlToNZvNePvttxEOh1EoFGA0GuH3+xGPxzE7O4uJiQkoioKrV68KtxSLxTA/Py+wAZ281TdbkcRTmaLb7WJpaUmEwSQ8sixrDgiexDyOC1KpFC5duoRcLodisYhcLodoNCo20mQyYXZ2Fr/+9a/xyiuvYHJyEtFoVAg3r/fFYjH88Y9/RLvdhtfrxdLSkmgdIaHjeS+aE/UtUdE1kUhoyi90Ld8Lo9EIj8eDixcvYnJyEs1mU+CyiYkJTExMIJVKYTQaIRqNIpFIiKQub/Xh4wPQ1ECNRiMqlQp2dnbQ6XSwuLgo2oi4VQNw4mmdMzXHGQwGrK6uYnl5GZlMBna7XbR18B6nc+fOYXV1Vfhrwkq8hEFWgb+gQlVVHBwcYG9vD06nE8lkUpMw5FEa1xBunfRgk1ILly5dwsbGhnA1LpcLPp9PzDscDiMUCuH111/XpCr4nE0mE4LBIH71q1+J3ykyJZdLz+ZCwhOwTqdTHOXmQHpc14OqquKAQSwWg6qqKBQKAtc5HA5hgegIFBWFecRG4/McHn0eDocoFArY3d2F1+vF6uoq1tfXYbPZxF6PSy08kzBRnYc2h/IXeqRPrbo0AeBJIo/6xPlmkdaTMOXzeezu7mJ5eRmrq6sIBoOa8Tl45C5tnEDR96FQCOvr6/jlL3+Jvb09fPbZZ5iamhJtF2R9qH5HoJNwHgUKtC5eiyTm6A8h6CO6TCaDhw8fCperfyuJPoDgCUZa82AwQCgUEsegOIMpOqaOCv5yD/IqHDuREnU6Hezv7yOXy+GVV17B5cuXMT09rXnB2HfKxlNfyYgv2Gq1wmazCVPNw1/KKnMMwNPzxABKYFKOqtvt4uDgAJVKBZcvX8bc3Jzw+3Q97xDgDCUGkEaSK6S/g8Egrl69imQyKQrI1DNNNS1qoeFtG5y5xFgivdbrQ28ao9/vI5fLIZvNYmVlRfRj6efPXR0lLfUHBOj5/Fqag/4wBFc8/gxuwbLZLEqlEgwGA37yk59geXlZc83T0DMfKNBvIP+dJs0XQP+nRFwmk0G5XEY8HofH44GiPO4V73Q6CIVCond53HN5wm2cVvNIkaynw+HA/Pw8yuUyer0ejo6OcHBwALvdLnqRSGh5ZKl3pXrgr/+eCzPwWLlIQYbDIWZmZgR+HIc/xllXIsJ43ArS3PTpFc4Lvmc0TqfTQblcRjqdBgAsLCzg4sWLCIfDGstK9+vn80zRHC1Q38ag/46DPr7hBJyBx6dr//a3v+HGjRt477338Nprr8Hj8eDjjz+Gw+HAu+++q+mHJnzybdHS087t1VdfRTQaxc2bN7G9vQ2TySTqhsPhUGCF4XCo0U7ulk7SWEp7cKEeDAa4e/cuer2eOM6ur8Wdhsja8Pv1SUwAAoQTZuWJWpvNhmKxiG+++QaZTAZLS0u4fPmyqDLo5zZuvfyaF3Y8/CRm6302nX/PZrMiKgwGgwiFQkgmk8eODem15axzczqdmJ6exltvvYVKpYJarYZMJoNQKCRaX7+rFjWOSGFIgEl5er0evvnmG4xGI6ysrMDtdj+XdTzNNeS2e72ewFG8VEX9aNFoVNMpelr6Xt41oHc79LfFYkEqlRLaQJZgdnYW4XAYfr9ftOVyd3YSyH5aonm4XC6srq4K4EnRD53o5e8rOO169a4QeGxNEokELl68KA4r8NMdL4JIqHmfGH0m4YrFYojH48JSnnUuL/ydljyry7ELCUir1RKv/yOtASDAuj7E5wL5LMTfcCJJksjbUO6L3o3Ei9inWbM+JdDr9bC3twefz4fJyUlYLBZRJ9SfgH6eRFltEiJeguHvrKKGP152OS19Ly9I5RGXHjRzEMsXS8T/fhZrpCcSTv3yeb/SWS0ToH3JKQUbZAnsdrsmAfpdr6p5FhqnzPw3rpz8pasvtTDxxXAB4tEHN7H6UFxvkcZFi6clYjK3lMD4qOU0xIX0pKhTkiQR8n8fxOfASR8NUgT6UgoTmVQCs/oEJxesk4RpnGvjGnZWF8GfQQlL/rbds47J37NARHUvevfCs2CTs5D+xWWKoogGwXG5qbPQC1cLvfXRv4WDv13kpPv12qP//SzE39JPjOc5s2d5Qaq+5EDWmGMjnst60W+m49Elz0HxDL/ecp6Fvhcby60Nr5Vx4pEa/24ccRd3loXzDDW3mrzN4qyAX688PBPOz7Vxd/8iie+3fn/1SV19s9xp6Xt1cwaDYazG8+y53gqNE5hnzTXxzDYdDxoXPZ4FkHIhBCCiRCojUfuKLMuiFPWi3R0PNnilgHAbBRkUXepfcv+09F8B4ES8jYSfJhk7UR2WOisD9NEN79fWlxuITrux5CZ5lX2cdabfXlRagBM/4Uxz4f1c3GqdNQD53twcTY7X8fSMexq3Nc5KnWbhHOiTxdDTuIDgNMQFR98aO06wXjTpk7z0N71QhLvzZ7GS/9V/iOe0gvC/Rv/f16enl+5fdfqB/nfppfz35n6g/036PxOQeHQHaDDHAAAAAElFTkSuQmCC;" vertex="1" parent="1">
          <mxGeometry x="690" y="350" width="87" height="33.14" as="geometry" />
        </mxCell>
        <mxCell id="3euveo2As2rDuUt7kVab-51" value="" style="shape=image;verticalLabelPosition=bottom;labelBackgroundColor=default;verticalAlign=top;aspect=fixed;imageAspect=0;image=data:image/png,iVBORw0KGgoAAAANSUhEUgAAAKoAAABCCAYAAADHYU1tAAAgAElEQVR4nO192XIb1/H+N8Bg3wiAALEQC1eRFClKimSJ3je5XJW4XPED5AHyAnkaVyp3qVykUslF7CxWLC+y8itJ1EKCG0iCFEAsBIh9sAyA/4X+fXxmCMoiZTtUFbvK5SEwmHNOd59evu4zEnq9Xg9ndEannDT/6wmc0Rk9D50p6hm9FHSmqGf0UtCZop7RS0FninpGLwWdKeoZvRR0pqhn9FKQeJybe70eCHbVaDR9v9NoNOj1euh0Omi1WpBlGb1eD0ajEVqtFhqNht0DAIIgsN/T9UnmJAjCDz5L/Tk/56Pu+aGxeXqR+Ws0GnS7XXYtCAJ6vR663S4EQWDf8+vsR/w96vuP4tVRc280Gmg0GhAEAXq9Hnq9nv1WzUcar9vtQqvVvrBc1XRsRe10Ouh2u2zSRN1uF51OBzqdDt1uF41GA4VCAZVKBZ1OBz6fDxaLBTqdDjqd7pCSnHRBNC5tAhIwgL5KSUSMpTk/j+DUvCDF6ie848yfFEqWZciyDKPRyNbRbDYhiiJ0Oh1kWYZWq4VWq1Xwi65JPmQM6Fqr1Sp4JYrioY3Qb+6FQgHpdBqiKMLlcsHlckGn0x1SRBq/3W5DlmWYTKZj8/OHSDhOZYom1el0UK/XYTAYYDAY0Ol02D3tdht37tzBrVu3kEqlIEkSBEGAzWbD+fPncfnyZczMzMBisaDT6aDRaEAURRgMhhNbJFKYbrcLAEwQABQC6Xa7CiECYNadNgzdR8+h9XY6HYU34TcGY+YJFZVXNLqm+dA81c8mC0sWjJ87KXO324Usy8yw0D2kaOrNptFoUK/XkUwm8eWXXyIejyOXy6HZbMJiscDv9+PixYu4cOECRkdHD43Z6/XYZhNFEXq9XjEGr+DHpWNZVGIYbwV5PZckCaurq1haWsKTJ0/YDqvX61hbW0Mmk0GlUoHNZkM4HIbRaDzkPp+XjnKLxHRiGG8t+d+SFSbLKssyABy5NvXfxAu1gh2X6DfqTUSbRxRFZglJ6QRBgNFoVMyNiN9wgiCwEKyf1+DHJ34mk0ncv38fa2trKJfLAIBWq4V0Oo3V1VVkMhloNBp4PB6YzWY2ljqk4J/5Y1Tpn1tRecXQarVwOBzM8mi1WnQ6HeRyOfz5z3+GwWDAhx9+iPn5eciyjPX1dfzpT3/CysoKMpkMhoeHYTKZEI1GYbPZmMU6zo7r9Xpot9vQarXMHZFlAZ7GV7VaDVarFXq9/pAFJMWg63a7jW63C7PZDJ1Oxz4XBIGFK0fNg+avDoeeh3iXTbxUbwpS3oODA3S7XRgMBuj1eoiiyL4TBAGi+FScPD9lWUar1WLPlGWZeQS10Wm321haWsK3336L8+fPY2pqCoFAANVqFZ9//jn+/ve/4z//+Q8GBgYwMTGBkZERiKKo8DgajQYmk4kZD15GL0LHtqg88e6D4qdIJMJchMvlQq/Xg06nw7vvvotOp4OdnR2Uy2XUajW0223GbHreccameLjVakGr1aJarSKVSuHevXsAAJPJhHq9DqPRCK/Xi/n5edhsNpYcyLKMRqMBnU7HQhhJkiCKItrtNtbX16HVauF0OjEwMACDwcAYzselZAlP6tZo89PzeNfcarWg0WiQy+Xw6aefYnx8HO+++y7a7Ta7V6vVotFoIJ/P49GjR0gkEshkMqjVavD5fJiamsKVK1cwMDDALKs6v5BlGc1mEw6HAzMzM7h+/Tr8fj9MJhOazSZeeeUVSJKEzz77DAcHB9je3obX64XD4UCv10MqlUKz2YTBYEAgEGBxdj+PdhJ6bkXlBUMWgIRE1sBsNmNubg4ejwd+v19hIWdmZvDgwQNsb2+fOPFQz4eP07rdLtbW1rC4uIh8Pg+PxwO9Xo/l5WW0Wi0MDw9jcnISdrv90PikaABQr9eRz+dxcHCAQqEAq9UKm83GvEc/969GQE66Fn4+/FjVahU7Ozu4d+8eLBaLwnPQfSSTRqOBRCKB+/fv48mTJ7h69SrC4TCTF8Wu/ZIcQRAQDAZhNpsRDodhs9mYhRwZGUEmk8HNmzdZQq0OIRqNBiqVClqtFgYHB+FyuV4oLuXpWBaVD/AlSWKWCHiaeLjdbrjdbhYfElMAwG63QxRFyLIMl8sFh8PBsv+TBNvqDLdcLuPWrVv497//jd/+9rf4xS9+gU6ng0ePHmFzcxO1Wg3NZpNttHa7DY1Gw+ZPJAgCVldXsb6+juvXr2N4eBgOhwN6vZ4lXkcJ+rjUL67lPxMEAQaDAYlEAqurq9Dr9bDb7TCZTIrMvd1uQ6/XIxgMwuFwQJZl7O7uYnd3F263G1NTU8ya0v0AmBfQaDQMfpqcnIQsy5AkCe12m8GKJpMJFosFzWYTNpsNkUgEFouF8SEUCkEURWxubmJ5eRnnzp3DpUuXWBL3Ih4HOKaiktJRME+JCO+qms0mNBoNg1M0Gg2LfVqtFiYmJhAMBmEymZjr5yGl5yWyDo1GA6lUCv/4xz+ws7OD6elpjI6Owul0otls4tVXX8Xly5cxODgIt9vNrA8lKZRodLtd7O/v4/PPP0ej0UAwGMTQ0BDsdjtzX/0gqRchfs206dS8EAQBW1tbePz4Mc6dO4fR0VGGkJBl4+Nzi8UCQRDQbDah0+ngdDrh8XhY/AqA3UvjqdEDUkzamIIgYHNzE/fu3YPP58P4+Dh8Ph/7PW1iMlLFYpEhBm+++SZcLtcL8+pEPotiD1oIH/yrFa7RaCCbzeLRo0fQ6XS4du0aAoEATCaT4v7jLoSUplKpYGdnB1999RUkScL58+fh9XphMBhgNBoxOzuLhYUFXL58GWazWYHfkpCazSYymQxWVlbw4MEDyLKM8fFxOJ1OZlHU+Gy/DPe481fzrV9BguCiZDKJ6elphMPhQ2OTgpFXkiQJpVIJDocDg4ODsNvt7B6yoJRcAkpIjt/IGo0GsiyjWq1ic3MTW1tbmJubw/T0NBwOB+Mh3WuxWOD1ehGJRFCv13H//n2sr6+jUCi8cOZ/LEXtlzRQwE8WwWw2swWKoohSqYTV1VU8ePAALpcLH374IYaGhpj7UldjnpfIhRUKBezu7iKVSjGs1mQysYw9EAjA7XYrlI1ialEUIYoiqtUqHj58iC+//BKNRgPDw8M4f/48s040Hp+8qKtZLyqIfhZalmXs7+8jl8tBlmXMzMzA5/MxKI1CLx6GarfbyOfzyOVyCAaD8Hq9hxKafrym+Xc6HbTbbWYIms0m9vb2sLOzg2q1ivfeew/z8/MKC02k1WqZDNxuNzKZDL788kusr6+/MH+OnfXzloAEB0ARv9F1uVzGw4cPsby8jI8//hgzMzMYGhqCTqdjbqufdXoeIqsei8Xw2WefodFowO/3Y2xsjEE8xEx+g9GciXGyLKNQKODx48d4/PgxXn/9dUQiEWZtaSz+/8QHmr/6u+edP4928AA9bapGo4FYLIZqtQqPxwOr1QqDwaAIEWiTExSVTqdRKpWg1+sxOjoKj8dzSHaUAHe7XYiiqNh4PIxXq9Xw5MkTfPHFF7Db7fjNb36DiYkJtoHVm58PBaLRKEZHR3H37l1YrVaEQiF4vV4Wsx6XmFk4SuP5xIGv8BCD1QIicLperyMWiyGXy2FgYAALCwusIkWAPEEsRwmZxiOMjscsO50OarUatra2sLq6CrvdDr/fD5fLpahM0Tx5peC/azabWFtbw8rKCvb39zE+Pg6/39/XLff77Fn0rPv5azWPSYnq9TqWl5chyzImJiZgNBqZUvLxMsmj0+kglUqhUChAq9UiHA7D7XYrlLrf3NT8AZ6C/MlkEmtra+h0OhgbG8P169fhdrtZxa4f0bN8Ph+i0Siy2SyWlpawsrKCRqNxaO3q5xz1XM2zGE8AMR+/kOLwu5qHK8hdpNNp/POf/4Rer8cnn3yCaDSqCAva7TbLPo9SVLIw7XabKWuj0UC73WYwTDqdRqfTweTkJIaGhgB8H7P1q4rw3kAQBFQqFdy6dQsbGxswGAwIhUJwuVyHmC/LsqKMSp/zBYR+Y9Hn6muaA/GYQHmyjO12G7VaDcvLyzAYDLhy5QoMBgN7BrlnvpmFlCubzaLb7SIYDMLtdh9qeKG5q2E1PmavVCp4+PAh7t+/jw8++ACvv/467HY7kzcvFz5OpXU7nU6Ew2GYTCZsb2/j9u3bqNVqP7h5jzIACtfPC2J1dRWxWAytVgsGgwE2mw1ut5vFQPF4HHNzc7h+/TqrDMmyjEwmg7t372J5eRkulwsWiwWpVArZbBa9Xg+VSgUrKysYGRnB/Pz8kZaFd9fEnFKphOXlZWQyGeTzeSQSCSwvL6PX6yGbzeLmzZtIp9NYWFiAz+eD0WhUVEb4ZKXb7aJYLGJ7ext7e3sQRRHBYBBWq1VR/+cz6/39faTTaRSLRRQKBeTzeezv72NhYQFvvvkmU/wnT57gm2++QaFQgMViwcLCAkKhEEtA+JKtusmEQppyuczGmpycZHAQuVu+ekbKXiqVcO/ePZRKJQwPDyMUCqFWq2FlZQWxWAyFQgGyLMNms+HSpUu4dOkSeyaNL0kSdnd38cUXX6BeryMcDqNUKjFFrtVqSCaTqNfrWFhYgNfr7ZtsmkwmOJ1OOJ1OpFIpxONxZDIZ2O12Vnqle/sp7SFF5WOsZrOJg4MDJBIJJBIJ7O/vw2azQavVol6vQ5IkpNNpbG1tIR6Pw+Fw4Pr16wyCyuVyuH37NmtomJ+fR61Ww8bGBrNIjUYD+/v7DFflu4fU1ogExwu3Uqkgn89jd3cXjx8/Zt09tNtLpZKibs8zguJnSj7y+Tw2NzeRyWQYDsl3LvG/JaUtlUrY2trC0tISNjY20Gg0EAgEWHa8vb2NpaUlBrhTwqPX6zEwMNAXIeFLmhT75fN5bG9vM3x6cHCQJU60Dj4Eo1Bhe3sbsizD4/GgUqng4OAAm5ubjGfpdJoZm3a7jVdeeYWVsSVJQiwWw3fffYd//etfcLlcmJiYQKlUYhuDnmk2m3Hp0qVDMiNe6XQ6WCwWeDwePHnyBMlkEjs7O/B6vQx94eWsRmMOKSq/C2q1GmKxGD799FNEIhHcuHEDV69ehcViQaFQwFdffYXl5WU8fvwYNpsNJpOJZdilUgmxWAy///3vsbm5iVarhbW1NWZtJUlCt9uF0+nEW2+9hcHBQdhsNjSbzacTUbkOcim88CwWC6uYWK1WLC8vo9PpwGKx4Nq1a5iensbQ0BBCoRBr2iB3yW8IEmwul0M8Hkc2m0U0GkUwGFTUpPlERRAEWK1WDA4OMqhmcXER09PT0Ov1kCQJ8Xgc3377LR49esQKGuRhwuEwzp8/z5SM+iP49fGC293dxfLyMnw+HytlAmAbnk9K+ESsVCrBaDTCbrfj22+/hU6ng9VqxY0bN7Czs4PvvvsOt2/fxt/+9jesrKxgdHQUVquV4dF//etf8cc//hGSJMFoNOLu3bss/KNCzuTkJN5++22YTCYFokBhIc1Np9PB7/cjFoshn89jY2MDkUgEQ0NDCuV8nkRUJEtTrVbx9ddf4+bNm7BarZidncXMzAza7TZarRb0ej3MZjOLnWZnZxUZpc1mw+zsLH73u9+hWq0qQGSyRlS3DofDCAQCaLVaCgXlY1++TEiLMRqNCIVC8Hg8EAQB9XodOp0Oo6OjrPXMZDKxOj7PND4+I0RAkiTkcjlWgbHZbGxM3qoSI0noVB50Op2IRqPQaDRIJBLY3t7G2NgY5ubmsLOzg3Q6jWq1CrvdDqPRyDJ63rqTgHnBdbtd7O7uIpFI4L333kM0GmVz6WdxqCFoa2sL9XodAFAqlRCNRjE2Nsbibq/XC5vNhrW1NVapy+VycDqd0Ol0cLvd+OSTT/DKK68orLVamex2O7xeL4t/1XOjdVCfhM1mQz6fx5MnT3BwcMB4epSr540nU1TgaXve4uIi7ty5g62tLbz//vusZl+r1RQMIWaHw2EMDAww5dLr9fB4PPD5fIegG5o4dfsbDAbWAsj3SfJKyU+UJq7VamG1Wtnza7UabDYbJicnmTDUbpVXPL5AodFoUKvVsL+/j06nA4PBwGIn+l4d9Gu1WhgMBmZhjEYjwuEwRFFELpeDxWLByMgIBgcHUS6XmTAIWlKHOLwlonHa7TaKxSJyuRwkScLY2BhLEuk3/OahuVEbXq1WY5WiUCiEyclJ+P1+RTbvdruRTqdZqCdJEkwmE6xWKy5cuIBLly4pEl3+P74dkebOGyR1QmSxWGA0GtHpdJDNZlGtVp8L0lNvDo0gCDg4OMBf/vIXLC4uwuFw4KOPPsLs7CwEQYDD4WBJSaFQQKfTgdPpRCgUgsViYZADdSKR2yboibJIUnhyYeoMmITFT1S9s3gAemNjA9VqFUNDQ5iZmYHJZGI1atpMFNPx7ptPZGq1Gqua6PX6Q/EpWXVaDwmHErBOp4NgMMis8/Xr1zE+Po52u42DgwO0223YbDYEAgHWZUTZOkFo/AYCnjaeb21toVKpwOFwsDJuP6HyVmxvbw9LS0uoVqssrp2fn0c4HGYxMnVIud1uGI1GSJLETmBQZxh5v0qlgna7DZ1Ox7BWAAx1IRlR9q+GuojP9MxWq4VyucyOtqjl0k/2vLERE4kEFhcXEY/H4fF48MYbb7CSG28ZCUze29uDJEkIhULw+XysPU6j0TBB84NT44dWq2XCoc8oHOC/o4nyrpHtqv9vuWu1GmvgtdlsGBgYYIvmS55Uy+fhE94a1et1FItFdjyDhEXJFh9PkgAJBK/VahBFEfl8HqFQCNFolB3BkGUZiUQChUIBer2etcNR/EubmQ9FaF61Wg23b99Gq9XCxYsXYbVaFYIkC8YrularZSiBTqfDzMwMXnvtNVitVkVvKoVvvGckQ8TH7xqNBlarVRE3Ez9Ilvy81cpGfKMTIARJ1ut1NJtNRVGIlFvtKfhrANBsbm7izp07yOVy8Pl8rCbOA+3tdhvlchnb29uo1WpwOp0YHByExWJhFoeUgRbAL4SyQFIAcq10/1GYHr/D6DOtVotSqYRkMsnwOqp28UqlDhv45xKjCb/kW+D4HgCaKz1LlmXUajUWe1JDtdPphN/vZxBYo9FgHVsul4vxqt+5Lj7Jk2UZ5XIZsVgMWq0Wc3NzDC7jecGviTYPtSbabDaMj49jdnYWJpOJKRnwfcJaKpXQarVgNpvhcrkUcBE922AwMGCfP1lAG4Q8IPGc/z3fYM+HCWR9KQTk18PHrWolBQDN+vo6vv76azSbTQQCAUxOTjJXT+edqDFieXkZer0e8/PzijNPtNtoYALk6W/qoiLXTd301OuobvcDvi/lqanX6yGXyylgmGg0yqyC2g3p9XrFgTSesbRZeIvRb7PQmprNJur1Ovb395miRqNReL1eRbd9uVxGPB6HLMuIRCLM1fJr5MMZEhw1P6fTaVitVkxPT8NsNistCzf/Xu9pt1oqlUIqlUKlUoHH40EkEmFQG698wNPQIpVKsZ5Rt9vNxiA+8Hg6jdHr9ZixoTmTMqoP+6krbWSo+JBAHfqpFVdN4tbWForFImZmZhTVI164iUQC9+7dY+1vfr+fHYXgmUZZPP9bmijtMgr06bt+5Vj1RMlNkSIUi0Xk83l4vV4MDg4qeh55BIFPinhslcY3m81wOBwol8ts05GikwD4w2r7+/tYXV1ltffz588jGo3C4XAAeFqOpZObnU4HQ0NDGBsb69vzyhcVaM6pVApra2ssNqUCASk2b8VIoM1mE8lkEqVSCRaLBbOzswgGg4rQi8asVCrIZrNot9sYHh7GhQsXGJbNh0W8caGQjjYV3cOXUdUJIp9o1et11s5ptVphsViYDqh/y4dE6uZwDTE1Go1iaGhIEUcKgsDwwcXFRTQaDTidTgQCAcWRBrX14109P3GyYEeBuvwC++0qCvKLxSKazSZGRkbg9XqfmT3yTFD/TRU3OnpCWC/PcF7g2WyW1awDgQDm5+fh8XhYbA4AuVyO4chutxuRSOTQacx+rg0AkskkNjY2EAgE4Pf7WTKo3tA0fzIOW1tbyOfz7IRFIBBgoQvJh5CB9fV1dLtdjI2N4cqVK4rmZ1ozL0tSSl5x+Hv6JcJEPPYqCE9xaOpz7WeUeKuqfqamVCrBZDLB6/Uy6IcGoSoStelJkgSn04nh4WHo9XqWDJEFUnfG8Avv58p516FeOB9c872R2WwWxWIRer0es7Oz8Pl8LAsl1w98X5qkBVP2Stao2+2y6gkpar1ePxRD6nQ61gyyt7eHWCyGdruNaDSKy5cvw2q1snkbDAZks1k8fvwYkiTB4XAw78PDc/Rs8jStVgvd7tMToPF4HBMTE0zZeIGqvY4gPD1LT6dDLRYLLly4wCpl6n6Ara0t3Lt3D71eD1NTU3j11VdZIsobB0EQmFdUy1IdhvDr4hWUnsfHuXTQkkd6KH6mv8lQqvsqNARBqDNiykC/+OIL7OzssFhmaGgIgUAAqVQK+XyeuXh1XKoe6HmID8Ip6Ka59Ho9Voc+ODiAKIoIBAJwuVyK05/PY11pji6XC+FwGHq9Hq1WC5IkMSsEQBGvdbtdlMtl5PN5WK1WDA0NKXo9SdjFYhH7+/sYGBhAMBiE0+nE7u4u4xXf5AOA8S+TySCbzaLVamF0dJR10NP9aiXhk6/d3V1oNBpEIhGGelAIBoAB+7FYDPF4HNeuXcPU1NShbPt5eaemfpgqGYlcLodKpQKdTodgMAiXy6XQNbWHoLWpjZoIgB0fKJfLLKYoFotIJpMsoSLLYjAY0Ov1kM/nodFoMDg4eCgRUcMvz0P9AmoepqJ4bGNjA6VSCQMDAwgEAnA6nYru9X7MVsdBNNfBwUGMjIxAp9NBkiSUy2Vm3Xj4hM+sq9UqIpEIfD4fHA6HolOLSsn7+/swm80MPUmn09BqtazljuZBApFlGZubmygWi7DZbPD7/XA4HH3XwmfJ9Xod2WwW2WwWFosF4+Pjh95S0mq1sL+/j7t37yKVSsHj8eC1117D2NjYIRd/EnpWCEf9H5IkwWKxsMRSveHU6+u3cTQGgwGVSgXxeJwds93a2sLNmzdx8+ZNXL16FSMjI6hWq9Dr9exEZLVaZW6FwH1ykTy0c1wijI8Hn2nyjUYDS0tLqNVqCIVCCAaDh8qefAjRb3w+dvP7/ZicnGRd/vl8HrVa7VBGK8syUqkUq+ZQXwAlnnzmXiqVkMlkIIoiO+JSKpWYtyEckne19XodDx8+hCRJGBkZYQfxACjCFeIP8btUKmF3dxfFYhFutxszMzOKTL/dbqNUKmFtbQ1/+MMfUK1W8etf/xqvv/46wuHwkS+lOA7xSkUhHhmqZrPJml+cTifGxsYwODjIxusXTvRL0ABAnJ2dxebmJpaWllAoFPDNN98gEAggFArhzTffRCQSgU6nQ6lUgiiKiMfjCIfDuHjxItxut2LCPGZ33Jcx8EqmdkekCLVaDdlsFiaTCWNjY4fgl347UQ1OkwIKgsBeU3Pu3DnE43FsbW0prClvuRYXF5FMJmG1WjE/P4/h4WE2BiWPfNyYy+Wwt7eHWq2G6elpuN1uRS8DzZEaSZaWluB2u3Ht2jUGytP8+YSKYnbgqUeYn5/HO++8g2q1irt370Kv18PhcLCe4EKhAEmScOPGDUxOTiqa17vdLnuPwUk779Xej1w/PTuZTMJgMGB6ehp+v59htmrdUBuYQ4p67do1VKtVJJNJlviYzWZEIhHMzMzAZrNhbGwMb7zxBrrdLtvxXq+XlS3Vtd9+8MLzkFo5+d1OB9YqlQqb21GK2i/x4AVNikiNGFeuXMHBwQEymQzK5TKDU3gmWq1WzM3NYXx8HPPz83A6newEKy+skZERvPXWWxBFEZFIBA6Hg72QoV92TJsvk8kgEolgamqKYa7ksdTrovVSN9n777+PRCLBMOpisQhJkiBJErRaLQYHBzE7O4tQKASn08kUSq1sJ3X/NB/+JW+ENxeLRfh8PszNzbHml6PGIg/aj8R33nkHCwsLrCfTbrdDr9ezcmKr1cJ7772Ht99+G41GA0ajEWazmR1VbrVarNz2LOjlOIsmRtIG6HafnjbN5XJotVoIBoOYn59nLYaEOqjdGP83JUYEtZBwrFYr3nnnHWxubuLrr7/G3t4ewuGwAmgfGBjAr371K/zyl79k86zX66weT24WAN5++20sLCywcqPZbGZlRHU8q9Vq2eHEbrerqHDRPTwfKBvm43+bzYYbN26g0WiwEuXBwQHq9TouX76MgYEBthYyADzebbFYnvmerueRFxFBfAaDgfXTtlothMPhQ6eAjwo5jhpfpFgwEAgoFIMWxp9pJ+UlpaB3OgFQxJInUVQ+ySFIg46rGAwGbGxs4M6dOxgeHsb4+LjibJQal1Nnyf3CCvpbr9fD7/fj6tWrqNfr+O9//wubzQav19sXMqPPjEYji6PpuWQBCdDuV7XhsU1BeHpm/+HDh5iYmEAoFDo0Zx6BUJcjeQUmeJDq+b1ej530BaDwUDy0yK/hJMSvnxCHVquFWCyGBw8e4Nq1a1hYWGC9vmrclFfaftk+kUgL5ev0BAuRpSJB8bADj41ScK+uSb+IZaWJkwLs7u4iHo/j6tWrGB8fZ9WeoyAOniH9lJmutVotzGYzZmdn0Wq18NVXX2FnZwcHBwewWq2HrAw9l+cFKQo/Fn9UpB8eSijGzs4OEokE3n33XXZmn54DfO8O+UobGZN+2CefBKrx0X686cef5yXeoPGxKR2vLpfL+OCDDzA/P888D42nTnbV61aThhZOWasoiix758uJBoOBtehR7ZcmS40d/Pmf42b9xGCypNRkbTQaGcRSLpfxxhtvsNfO9LPeR1l1PjZV17I7nQ4mJibw1ltvweFwsJeAVSoVBQJA6+VPxaqbLPixyWo1m022+ckLtFotHBwcsOPNU1NTGB4e7qswlEwSnwGw8ECSJHZKgjZvP9SFnkvyAkP5uyAAAAR2SURBVL5PeJ9lyY4i4httBLpuNBpYW1tDsVjE0NAQXnvtNYyPjyuUk79W68hROsOOovB1bXLp6qSGLCdVF4hp/EsQTmpF6Yj1rVu38ODBA1y5cgVTU1OwWq345ptvoNPp8NFHH2F4eJjFyGpL109J+V2vhkSIueT+XC4XPv74YySTScRiMWg0T08juFwutjZ1mVf90mBeSQEoThiQ1SFkIB6PQ5IkDA0Nwel0KjBQ3uoKgqDoF6CxNRqNor+Xf0USn3Txys8355D35EOI5yV+85Ixy+VySCQS2NnZwfj4OEZHR1kMzJfOiRe0Bl5+/PN5EulD3qXwE+EVlRatvo9297Ngoh+iXu/79rg7d+6wmvDAwADS6TQCgQDOnTvHQPZ+FuCH3Ac/N55IeCaTCRcvXoTZbEYikUC5XEahUGBxOR+T865Z/XxSAjUawvOn2Wyycuzo6CjrOSDjQDwhJeCVgv+cj1n5jUBj8uvl5cIr8kmJx5CpIFIulzEwMIDx8XFMTU0pLLt63OPMReQZ3g9L4wXBH3w71N3yAgE5ESUAFosFuVwOd+/ehc1mQygUwszMDEZGRhT9o7zCPSO2OfIeXgHob6vVikuXLmFiYgIPHz5kr9PxeDzQar9/IS2vgPyzeUtz1DwAsHczORwOhmCQApI11mg0h14Zf5Sr7veKnaNkws/1RV+wS9BhIpFAtVqFzWbD5cuX2cajxnX1uOr5/pBhO9Y7/H9K6vW+7wRKJpPs9YoEh9ntdlgslkPZ909FBNoDYPMgy3qcJOAoKpfL+L//+z+YTCYMDw+zF7vxFpVPVHhM9TQQxedkDSuVCgtT6B+lAMBOcLzohjhVikrlU4qb+FeS89gj3f9TKiuPjapjuKNiqeMoEbUsqo/P9HvWaVVUUkIKEWme/JEbegFIP4t/HDo1isqX86jQwO9Eqrrw1Sj1O6b+F8QnAceNy/nf85UiNQZ8Gqkftqz+nse0X9SonBpFJYtKQqJTn3zypn4pxU/t/nnlOUoJ+Qy234nKo4hXzn6WVG1FT6PC8qrDlz6PsvwvsoZT809MUoBNMQ8vdP7woBrW+DnpqD39YygSH17wzzsKbzwN1C8UUn//Y22wU2NRiQjb5JWWwgCNRsPejqI+h/Rz0LNwvp9yzBcJLX5K4jfRs+Jnfv4npReLcH9CotgGUEIvVDX7X5DayvGfHZf4kEGNIx5lWU+TkgInTyRPQqdOUXlIBlAWGHhA++cQHF/s+CnGepYz61ePP42k3rw/Fb9OnaKSNeFfekCKSf0EP4ZF+yHigXd1NUo95knmQsngUe6c7xk9bS6/H/Hdc3xH1Y9FpyZG5QFkvoGCYCgAhwT3c1hUGo+f549lNfjGGB7qoY15WmNTQInSqE9EAIcTrRed/6mzqICyXs5/xvce/ByCU7ct/tj0rBr3zxn//Rj0U8vk1FjUMzqjZ9GpwVHP6IyeRWeKekYvBZ0p6hm9FHSmqGf0UtCZop7RS0FninpGLwWdKeoZvRR0pqhn9FLQ/wPp7TYIgnaLLQAAAABJRU5ErkJggg==;" vertex="1" parent="1">
          <mxGeometry x="690" y="418.65000000000003" width="84.24" height="32.71" as="geometry" />
        </mxCell>
        <mxCell id="3euveo2As2rDuUt7kVab-52" value="" style="shape=image;verticalLabelPosition=bottom;labelBackgroundColor=default;verticalAlign=top;aspect=fixed;imageAspect=0;image=data:image/png,iVBORw0KGgoAAAANSUhEUgAAAKAAAAA9CAYAAAAqN2KwAAAesklEQVR4nO2dWW9b1xXvf5wHkeIsUaIGU5Ml2ZaHOo7cunBSFwGKAmmBPve136afoUBfE7Qo3JciQZMacWLHSTxKlk1rHqiJpCiS4kzeh2DtbB5RqdUU1/c2XIBgkTzcZw//Nf3XOrKp2Ww26UiLNJtNGo0GJpMJs9nc9nP5OemajryedHbuBGk0Gui6KYCT3xuNBrVa7dh1HTmdmDoWsL0YwQdgMpmUZTSZTMoCmkymNzXN/++lYwFPEAFVs9mkXq8fs3K66200Gv/X5/e/Ih0Afo+Iq9UtoABTQCeuuONI/jPpALCNCPAALBYLVqtVWTuz2Uy1WuXo6Ehd03HB/7lY3/QE/l8UPb5rNBrkcjnK5TIAwWBQXdfJgn+4dAB4gpjNZhqNBkdHR6ysrJBOp7FYLFy5cgWXy6Wu0cHakdNLB4BtRFzwwcEBKysrfPzxx2xtbeH3+xkbG6Orq0uBr16v02g0sFqtHRD+B3IqAAoXdpLL0SkKQGWPFotFBfMWi+XYQRktiHEcuaZer2M2m4/dX67XfzebzS3Jg/FeMh8BknGNci+LxUKxWCSVSlGr1ahUKi18oB4vGsdsN2f9u+3WKPNtNptUKhUVgxo/l9e1Wk2NX6/XMZlMWCyWluv17+h7pY9/0l6dtJ/GM9N5Up2mMo5plNcGoEzGyIPpE9LpiHq9TqVSoVarYbfb1Xe7urpaQKhXFOS1fvjymb7ZNputZUOLxSJmsxmr1Uqj0VDjtzsweU/mA7SAUF+n1+slFosxMDBAJpNRIKrX6y3j6uuv1+vY7XY1VrVaxWKxYLfbWyooRqDK9fr+lUol7Ha7AohxPY1Gg1KphM1mw263U6lUsFqtLQA0AkWMgsS2TqcTt9ut5ilgl3nJ3tpsNoBje2tcv25k/msAbDQaVKtVdcjiekTjBCwWi4VMJsP29jabm5vq81wuR3d3N9FolGg0Snd3N06ns2UBsjlGAMnGyCFWq1VKpRIOhwOz2czR0RGPHj3CYrHQ29tLX18fJpNJAV/GFaWRccVqtLOGFotFxYCNRgOn04nJZKJSqag9aDablMvlFgtiMplalMNkMmG329U95HqbzaZAbLRiMt9arYbb7VZKqO+1nEmz2cRut6u5OhyOtoetW1qr1UoymWRra4tKpUIoFMLr9bKyskI4HGZgYECto1arsb6+rhQhFovh8Xhawo9ms9kCWqNHkTWeBMLXAqB+eO0GSqfTbG9vs76+DqA2wu12K400mUykUilWVlZwOp2EQiHi8Therxer1aoWY7RG+u8CdFGIZDLJ5uYmxWKRQCCgAAe0gKter7dY3Uaj0XLg7VyKDkD5vrgheb9cLrO3t8fBwQEOh4NKpUK1WsXpdBKJRAiHw2pO1WqVcrlMKpXi4OAAu91OoVAgn89jtVpxu910d3fT09ODw+FQSgffWVz5XXffNputrWU0hinlcplMJsPCwgLFYhGr1YrD4WBubo6trS3S6TSzs7MMDQ21nLXL5aJQKLC/v0+hUKC/v59oNNrWzetYMVaSfjAAdbeiS6VSYXFxkbt373L//n1GRka4ceMGFy5cwOfzYbPZsNls7OzsMD8/z+eff04+n6e3t5f33nuP0dFR/H6/OmTRePnR4x+TyaSsTSqV4uHDh7x69Yp3332XeDxOIBBosdRyGPV6XVlufWzjuHK9URHK5TJmsxmHw9ESWqRSKZ48eUIikSASiZDNZslkMrhcLi5evMjly5eJRCJqjGw2y9OnT3nx4gWRSISNjQ2lkL29vYyOjvKTn/yEaDRKV1dXi6ex2WyK9Bbrrp+JWMl2QGg0GqTTaebm5vjwww8ZGhri+vXrBINBPvnkEz788EOCwSBnzpxp8Uxms5lYLIbJZOLw8JBHjx6Ry+VwuVz4fL4TDZJxf78PhKdKQmTxYh1SqRQfffQRc3NzFAoFfvvb3zI5OcnAwEBLpmixWAiFQly6dIkzZ87w+PFjHj9+zJ///Gd++tOfcuvWLYLBYIt1E1CIO5XYqtlssre3xwcffIDJZGJqaorBwUFcLpdycWKpBEh2u51araYALrFitVptiTfbWV+73Y7f76dWq3F4eKiuTSaT/OlPfyIajXLr1i1CoRCNRoONjQ3++te/8tlnn5HP5/nFL35BMBjk6OiI27dvU6/XGR8f58KFC+zs7PDll19y+/Ztenp6eOutt+jr68PpdCoLI/MSQIhC6/MUwMm/uuWsVqtUq1Xu3LnDnTt3mJ6e5sqVK0xPT2O32wmHwwSDQSYnJ+nt7W0BkYRDPT09mEwm9vb2ePnyJclkklu3bhEOh1sSTN0CGxPOH2QBRcT1WCwWNjY2+Oabb/jXv/6FzWbj3LlzXL16lVgshtvtbglK5SADgYCyCEdHR/ztb3/j888/x2Kx8M477xAOh5XW6xZLFtBsNtnc3OTx48ckEgnOnTvH1NQUfr8fi8WirKjMVV90O7cu77fbHHFjxoM2m80cHByQSCSYm5ujp6eHsbExPB6P2vRwOMzKygpff/01169fB6BYLDI3N0fA72d8fJxIJILH42F/f59SqaRiPofDodYuYcv6+jqJRELdKxKJtLheIzuhz71QKHDv3j0ePXpEqVTiwoULnD17Fp/PR6lUUh5jfHycnp6eY5ZLYstwOMzZs2f57LPPePjwIb29vZw/f55oNNoSEpwmA4ZTluL0w5ibm+Pvf/878/PzxGIxfv3rXzM8PKzAJxZMsicBb7PZJB6Pc/36dSKRCPPz8/zlL39hZWWFQqFwbDFyqBIUz83N8emnn9JoNBgYGGBkZERlihI76e5IFEEOVVcKUQybzdYS3+n/NptNSqWSiofMZjPJZJL5+XmKxSIulwu/36+sksvl4ty5c5jNZhYWFiiVStTrdcrlMrlcjuzhIblcjlqthtfrpb+/n+7ubprNJoVCoSVhAkgmk9y5c4c//vGPfPjhh6ysrFAqlY5lzOKZZO3yeSaT4YMPPmB5eZmJiQmmpqaIRCLUajX29vbY39+nWq0Sj8cJh8PHmA7xPm63m0uXLhEOh9ne3ubevXssLi62JEc68NolIz8IgHJo1WqVly9f8uTJE169eoXb7SYSiSgXqme0Ol2hg9FisRAIBHj77beJRqNsbm7yySef8OLFCxXv6NSDgODFixfcv3+fhYUFLl++zPDwMEdHR8qC6IoiNVsBsJ48yDV6ti3Z6En8XK1WU+MVCgUODg5U3Cgxodlsxu12E41GcTqd5HI5UqkUpVIJr9fLtWvXsNlsPH36VNEbTqeTvr4+hoaG6OvrOxZrh8NhRkdHCQQCDA0NMTExoUIRQPUkqgPVOMFkMsnz58/Z3d0lEolw5coV3G43gLKM6+vreDwexU7o4JHwRYDYbDYZHx/n8uXLPH78mHv37rG8vEylUmk5d6M7btdNdGoAyoTK5TJff/01z58/p1wuc+7cOUZHRxW/p3ePGA9VX1hXVxeXLl0iFotxeHjIF198wfPnzykWiwoUuhXL5/M8fPiQRCJBtVplYmKC/v7+tkSyfi99I2QdxjnKJsn3JM7Ts+N27tzYjCDfs9vtKhSQzwWAsViMbDbLq1evSCQSHB4ecv36dc6fP3+MI61Wq+pwBwcH6evrw+VycXBwQDqdJpfLKXcr99PXnkqlWF5eplAo0NPTw9mzZ7Hb7eTzeTY2Nnj48CHZbJaenh6CwSAOh0OtSfbFuN6+vj7Onj1LKpVibm5OKZMRK7q3PAl8cMoY0GQycXR0xJdffsni4iIul4uf/vSnamFiIXQeSQ/+Jb4DsNlsTE5OEovFqNVqPHnyhJmZGQ4ODnC73UrrJPM8ODjgwYMHbG9vEwqFGBwcJBwOq43RLZlYOnEf8uNyudR4simVSkVVNzwejzpInfnXDxjA5XLR3d2t1me0psJdejwePB6PAuT09DTJZJL9/X1evnxJV1cXXq+X9957j0gk0kKdyDi7u7tsb28zPDxMIBAgm82ytbVFvV7H4/EQj8dxuVzHKCSz2Uw2m2Vzc5NarUYgECAWi1Gv19nd3eXly5fMz89Tr9eJxWKqWKB7DDkrOb9qtYrf72dwcBCz2czKygoPHz7k2rVr+P1+de/TyKkAWCqVyGQy7OzskM1miUQixGIx/H4/+Xye+fl5enp6GB4eVpqo84ClUonl5WWVWXq9XsLhMH19fWxubqrNDYfDOJ1OFbeVSiX29/dZXV2lVqvR29urLJnuciRBkmtXV1fJ5XIcHR2RTqd56623uHHjBm63m2w2y+rqKvfv32drawur1covf/lLlSCIGPnPZrNJLBbjwoULfPTRR6yurjI3N8fExITiAguFAuFwGIfDgc/nw2q1ks/n+eqrr2g2m9y8eZOJiQnFk3q93hbCWiyYw+FgfX2dr776ioGBAfb29vjqq68olUosLCxweHjI73//e4aHh3E6nWq/RXnK5TL5fJ5qtUo+n2d/fx+z2cz6+jrPnz9na2uLoaEhfD4fd+7c4fLly5w/f77FSxhb0ex2O16vl4GBARKJBAsLC6RSKYLBoFI0PYYWAP/gLFg6Q9LpNNlsVpV9AoEAbrebTCbDw4cPGR4exufz4fV6W3i9Wq1GJpPh66+/JhKJcP78ebq7u/F6vYRCIQXqra0tJiYmWrR6b2+PRCJBOp3G6/USjUZVPGnMtsUKVSoVUqkUz58/Z319HZPJRDweVxziq1evePbsGYlEglevXlEulwmFQnR3d6tsvFAoKIJ9d3cXgLW1NcbHxxkdHeWtt96iXC5z9+5dAPx+P7lcjo2NDXp7e7l06RLd3d2YzWYqlQpLS0vs7OxgsVjY3d3F4/Goik44HKa/v59IJKJcYaFQIJlMsrKyQiQSweVyEQ6HqdVqPHv2jMXFRRKJhAKE0fp4vV6lTHNzc9y+fVspbzgcxmq1cnR0xOHhIQMDA2pPRfGM4Y28djqd9Pf3s7q6yu7uLouLiwSDQfr7+1vw0m6M/wiAcsj5fJ50Oq18vtPpxOVyYbPZKJVKPHv2jEwmo8y0gKhWq1EqlVhdXeXu3bvMzMwwNTWlylx+vx+r1crh4SHJZFL13klMubGxwbNnzygWi8RiMaLRqLIYgEoAxGJ2dXURDofx+XykUinm5+eZnJxUJOvy8jJPnz7l5cuXqgqzvb3NixcvmJqa4ty5c4p8XV9fZ3Nzk0wmg91uZ2lpiWg0Sn9/P++//z6ffvopjx49wu/3E4lEqFQq7OzscOnSJW7cuKEShnq9Tjab5ZtvvmF5eRmr1Up3dzfd3d1YrVampqaYnZ3lZz/7GU6nk2q1yvb2tlLMer3O4OAgs7OzlMtlFhcXef78OWtra8TjceLx+DEA9vf3c/78ee7fv8/Lly9JpVJcuHCBd955h2vXrvHJJ5+QyWTIZrOcP39ehUN6aVVXbhnfarUSjUbxer2KERgaGmJwcFDhRQfs98lrV0IsFoti82u1Gj6fj76+vhataTabqiIioBKq4/DwUJWhzpw5oxbV1dWF3+/HbDZTLBbJ5/MtiwWU5dUrEnoZTSgQWaww9eIy/H4/8Xgci8XC8vIyiUSCeDzO7OwsS0tLpFIpkskkLperBdihUIirV68yODio5hWLxVTZb2RkhFAoRC6XU0S5w+FgcnISv9/fUpu12WxEo1Hef/99urq61FoksROrfPnyZTweD6VSiY2NDbLZLIFAgPfee4+zZ8+q+0iMGwwGcblcVCoVVReW+DEYDHLjxg36+vpUPTcUChGJRLBarfzhD3/AarXS09OjMncZ4/tEzkCUN5vNUiwWW7zQ69Iwr+2CxZLpBXUjVVKtVkmlUhSLRYLBoLKcbrebw8NDMpmMamc3BvgSx4n10ycvAJT2IbGsRs0EWnhDoWe6uroYGxvDYrGwvb2tCN1wOMzGxoaKdSKRCF6vV41tt9sJBoP4fD7lUgTszWYTr9eLz+cDvuXbRNkcDkcLt7izs8Py8jLlcpmRkRGmp6epVCoqWSoWizx//lw1vYq3mZubo9FocO7cOYaGhhRfWC6XKRaL1Go1+vv7CQaDmEymlm6YZrOpOl0CgYDKaEXB6vU6V65cweFw4HK5Tmx1k7MwumJR1nq9TjqdplAoHPvO99WATw1AOVwJjiuVitoEAVO1WsXj8dDT00N/fz+NRoNKpaIK2nt7eywtLbUEqFIuOqkiAd8CUMBrs9kUl2VM7wXwEkQfHBxQKBSwWq3EYjEV89y8eZNAIEAqlWJra4tMJoPFYmFoaEgpjv5jpDqMLsZsNqsqgiiR7JPJZGJtbY379++rWEuyXxlLGhV8Ph9Op5NGo8Hh4SFPnjzB7/dz/fp1HA6Huu/e3h75fB6n06nYALPZTD6fVwoogb8+D7mfsACBQOAYUf86ogOwVquxv79PLpc7Rlm9zjMzp4oB3W63IpyPjo7IZrMtVQ8p11y9epXe3l5VM7ZYLNRqNZLJJLdv31bUgVg9qclK7KY3JMB3nSTwrSuTiofMTQCnlwqr1SobGxvs7e1RqVRYWFjg+vXrTE1N0d3dTb1eVwmDdLPE43FV05Vx9RqxgEXe1w8Zvm04qFQqqpYrBxAMBolEIty7d49kMsnCwgKBQECtwel04vP56OnpUa1apVKJdDpNPB5nZmZGhTSpVIp//OMfOJ1Ofve737XQH11dXQpg+px1qkjYAhG920c/b5F24JFExOiC9fN4XTmVBfR4PCpDFJJUXInT6WRycpKhoSGuXr2qetn0zLSvr4+DgwN6enrUZ0IPSLWgv79fVQPke8bmUb2Xz7hgqYBks1mSyST5fB6Xy4XL5SIUCqmCe6VSoVwus7a2Rq1WY2BgAL/fr5IGnQzXqRjjTzvKQS/rSSPG9PQ029vbqqew2WyqWEpq5D09PZjNZg4PD1XLlsvlwmKxkEqlODo6Ym9vD6vVyuTkJGfPnlXVCwkjBFB6LdxII8k+yWfGEEau0b9vFDkDUUq9E0cn+U/6vsip+gGFt5MSlFiRUqmE2+3mypUrhEIhfD5fSxlMxOPxcPXq1RbwHBwcsLW1xdHRET6fj6GhIRWnyGa020AdALIhck0ul2Nvb4/d3V2q1SqxWOwYvyex19bWFna7ndHR0Rbwmc1mVX6T9UpsadxkSQikHq1bGZPJRCAQwOv1Mjw8TDqdVl01QmhLc4GAR7jLwcFBPB6PYh5EoS5evMjw8DChUEidgyiK3FNvz9cbO2RtAjq971APO04Cn75uY9VJx4t+Rt8nr20BJaP0+XzE43F2d3c5ODjg6dOnhEIhRkZGGB4exuFwqIXpNxcNlY5l+JbYTqVSpFIp3G43vb299Pb2tmTW8K3bla5kSYTalXdk3FQqxdLSErlcjkAgwNTUFGNjYyrmqdfrrK2t8ezZM5rNpuLghEjVrYMckLwnLk2Pm/TP9f2SgxFPIbyfAMdqtap76kR6X18fHo+HM2fOYLFYFGE9PDwMfOuynU5nSw+lzFevROnWrF23udTP9bnq+9gOfKJw5XJZVbl8Pp96UvC0cioXbDab8Xq9XL58mZ2dHRKJBE+ePFE8lNfrbWHN9aRANEXca6lU4uXLl2xubmIymZiYmFBNpXqLt8lkUpbCarVSq9UoFostcYxxk3Z2dnj16hWVSoUzZ85w4cIFFXNJAJ5Op1lbW6NYLBIOhxkbG2tb0tJdlO6OjbVmiXeN3SEiAgqJYY2WSPapXq/jcDhwOp0EAgF10JJZyxpkTFmzDi59L4yWWvZWn5e+jpMslj6WeA9hJYLBoGqg1ef0OrHgqZ+o7urq4u2332Z6ehqHw8H8/DzLy8scHR21PRg9PpLYUZo779+/z+rqKj6fj2vXrnH27FncbneLtZHgWri3arV6IgDFum1vb5NIJKjX6wwPD3Px4kUcDoeq3QLk83m2t7fJ5XIEg0HVZaLPV29K0NvJxBXr89RjVaPrkevlfaNblHtJUiZztFqtuFwuPB5PS2lSvq83nupdMTLfdl5Cd7Myxr/j/YxxYbPZbAFgOBxWWb1+/eu44FMBsNlsYrPZOHPmDBcvXmRqaopCocDS0hJLS0uqqK8X+wWQku2Ke81kMnzxxRek02nGxsb4+c9/zsjISIu1EYpHeu6EdxIAtltgvV5X9Wqz2Uw0GmVkZER1aAPq4amNjQ3MZrNyIYuLi+zs7ACoRgZ9HVIX1RMUURLdXeutaCLt4iJ5wEpPsMRDlMvltnG0HvTrGa7+cJJeGZJsXCywzMGYJRuVSAevDkB5LRyr1WpV+2e0yO0UwCineixT5wGnp6cpFArq4aCPP/4Yj8ejYik5GPiuGVXa4JeWlvjyyy9JpVLE43HeffddJiYmFD2iH1aj0SASiTA+Ps6DBw8UKS2HrB+Q1H93d3cpFAoMDQ0xMDCgtFPGbjab5HI5MpmMqtWm02kODg4UlfHvXJPxc/1gjdcbM03dbbfL4tu1VuliHEt35e0ydV1Z22WmeuyoXy9A0seFbxXn4OBAJZ+jo6OEw+Fjyct/LQs2xnKVSoWRkRHC4TClUolPP/2Uf/7zn0xMTKiYQNyOcHLyMM/+/j5ffPEFd+/eJRAI8O677/L+++/jcrmUNurVkVqtRl9fHzMzM9y+fZtcLkcymaRSqSgQyuaXy2XW19fZ2dmh2Wxy8eJFBgcHj7m5SqVCPp9XT3mVSiXW1tZUR8nrErMnVQ10i3XSdfCtizXGZNCambYbX/+O8fvtqhntwG/8rJ3Vk6RP50KluLCzs0OpVCIYDHLu3Dmi0eiJjzH8YADKBGVxwta73W5+9atfMTo6ysLCAg8ePGBubo7+/n4mJiYIhUKqzLOxscHi4iJra2tYrVZu3rzJ9PQ0Z86cUaS0bIiuRVJ6C4VCjI+Pqy6QXC5Hb2/vsaaE1dVV0uk0brebyclJwuEw5XK5pd1Jas6ZTEY9JGQymVRV4cf4Zzb0+FyvnBj/rdVq5PN5VldXsVqtjI+PEwgEWurzcr3st4C43Z6eioaB1uZPs/nbx/akgvHo0SNMJpN6PFL6zyS49/l8xGIxIpEI8Xic0dHRli5c3VXpLl8eaJqZmWFnZ0dRN7FYTNVpRUEGBga4efMmV65cYWZmhlAodGxMq9XK+fPn+c1vfoPNZlOdINKHaNTkH4PorlyPbSVMEBDlcjm2t7cpFAr09vZy4cIF1Xqne0p9zyVDbyevTUSLa2oXHwQCAbq7u4nH4yrQXVlZYWdnRxHM/f39zMzMYLFYFKUgWidkr+5OBCzijn0+H1euXGFpaUl1+g4MDKin0eRZ2dnZWWZnZ9vSEsKFud1ubt26xezsrIppXS6XKi3pf1XhxyISS0t3joQhEgZJsrO7u8vy8jI2m42xsTEuXrzYwgG2o1++Lxl57RhQr4ECitMClOkWsrher9Pb20skElEgkuv1DmkBiWiPDmyjFjkcDsbGxpidnaVarfLgwQPFlUnbu4xxUgamt+lbrdaWOur3de3+r4vEdRK3S+ODnLt4MbPZTCKR4JtvvmFmZoa3336beDyuPJzgQxgCPZY/aW9P1Y4lJtnIwcmN9WdVhZSW6/WA1NjkKGZe3xA96JXruru7mZ6e5ujoiDt37rC7u0s2m1XcoU4XGF2AzsEBxygKPRM8yV38r4qRltHPWM6nVquxubnJ1tYWZrOZa9euMT09jcfjafGM+r7L2D84CREOyciGSzylB+3tJqHXGnV+Ta+rGjMnEWNrt3TdJhIJarUau7u7KgiW+egaJ25XNlJ381K50BXlxwpAY41b3pcGB+nmzufzTExMcO3aNfr7+xVodYNi5A2/997N170SjmVJOulpfMZWn4iuAbpmSZovXb7GRAday19C7srDTQsLC6TTaa5evdpSnBerp9dKjZqoJy4y73K53PL88o9RdHcs4EsmkywuLvLixQt6e3uZnJxkcHBQ1f31cze2yemepZ2c+rFMsRRiNf5dtmg8eL1GLBM9yWwbCWG5r9vtZmxsjEajof6iwv7+PoCqGevaaPzrWLLRxveN8cuPKSY01uzF7e7v77Ozs0OxWCQejzM8PMzw8LDq3mk0Gm0V9iSPZpRTAVDPiuS18a9XiZxUC9T5JhlDN/86IHXw6TVMk+m7P4ExNDTEq1evyGQyyjrr85I/maaPJRtuTFakw/fHlgUbkwZJ6EqlEtvb2xweHuL1erl48SIejwf4LgRrBzB9j/XX7eS1XbB+Q906SHrejoFvV5w3suN60iDXGwv1cr2x2A7f9SQKXyiZuPEe7aywrEUPLcQ6/5jIaB2AOu8nFJmcsXgXuV63mMZEU0KmdrjQ5VRZsNEltquZGr9j/NwIYN2qfd84cLykJIv3+/1tyU/j94yANiZO7eb7YxB9/fJaEhDh+IyeSd8veU8fzzjmifc+TRLSkY78t6XzP6x05I1KB4AdeaPSAWBH3qh0ANiRNyodAHbkjUoHgB15o9IBYEfeqHQA2JE3Kh0AduSNSgeAHXmj0gFgR96odADYkTcqHQB25I1KB4AdeaPyfwCi+SPOsjVaUgAAAABJRU5ErkJggg==;" vertex="1" parent="1">
          <mxGeometry x="670" y="548.43" width="100" height="38.13" as="geometry" />
        </mxCell>
        <mxCell id="3euveo2As2rDuUt7kVab-53" value="" style="rounded=0;whiteSpace=wrap;html=1;fontSize=14;fillColor=none;" vertex="1" parent="1">
          <mxGeometry x="690" y="320" width="20" height="280" as="geometry" />
        </mxCell>
        <mxCell id="3euveo2As2rDuUt7kVab-54" value="æ¯å±ä¸ªæ°" style="text;html=1;strokeColor=none;fillColor=none;align=center;verticalAlign=middle;whiteSpace=wrap;rounded=0;fontSize=14;" vertex="1" parent="1">
          <mxGeometry x="670" y="610" width="60" height="30" as="geometry" />
        </mxCell>
        <mxCell id="3euveo2As2rDuUt7kVab-56" style="edgeStyle=none;rounded=0;orthogonalLoop=1;jettySize=auto;html=1;exitX=0.5;exitY=0;exitDx=0;exitDy=0;fontSize=14;endArrow=none;endFill=0;" edge="1" parent="1">
          <mxGeometry relative="1" as="geometry">
            <mxPoint x="340" y="780" as="sourcePoint" />
            <mxPoint x="340" y="780" as="targetPoint" />
          </mxGeometry>
        </mxCell>
      </root>
    </mxGraphModel>
  </diagram>
</mxfile>
